<?xml version="1.0" encoding="UTF-8"?><svg xmlns="http://www.w3.org/2000/svg" xmlns:xlink="http://www.w3.org/1999/xlink" fill-opacity="1" color-rendering="auto" color-interpolation="auto" text-rendering="auto" stroke="black" stroke-linecap="square" width="2020" stroke-miterlimit="10" shape-rendering="auto" stroke-opacity="1" fill="black" stroke-dasharray="none" font-weight="normal" stroke-width="1" height="1350" font-family="'Dialog'" font-style="normal" stroke-linejoin="miter" font-size="12px" stroke-dashoffset="0" image-rendering="auto">
  <!--Generated by ySVG 2.5-->
  <defs id="genericDefs"/>
  <g>
    <defs id="defs1">
      <clipPath clipPathUnits="userSpaceOnUse" id="clipPath1">
        <path d="M0 0 L2020 0 L2020 1350 L0 1350 L0 0 Z"/>
      </clipPath>
      <clipPath clipPathUnits="userSpaceOnUse" id="clipPath2">
        <path d="M-903 910 L1117 910 L1117 2260 L-903 2260 L-903 910 Z"/>
      </clipPath>
    </defs>
    <g fill="silver" text-rendering="geometricPrecision" shape-rendering="geometricPrecision" transform="matrix(1,0,0,1,903,-910)" stroke="silver">
      <rect x="-887.8363" width="763.25" height="281.25" y="1477.0105" clip-path="url(#clipPath2)" stroke="none"/>
    </g>
    <g text-rendering="geometricPrecision" stroke-miterlimit="1.45" shape-rendering="geometricPrecision" transform="matrix(1,0,0,1,903,-910)" stroke-linecap="butt">
      <rect fill="none" x="-887.8363" width="763.25" height="281.25" y="1477.0105" clip-path="url(#clipPath2)"/>
    </g>
    <g fill="rgb(0,204,255)" text-rendering="geometricPrecision" shape-rendering="geometricPrecision" transform="matrix(1,0,0,1,903,-910)" stroke="rgb(0,204,255)">
      <rect x="-656.2113" width="100" height="60" y="1632.6355" clip-path="url(#clipPath2)" stroke="none"/>
    </g>
    <g text-rendering="geometricPrecision" stroke-miterlimit="1.45" shape-rendering="geometricPrecision" transform="matrix(1,0,0,1,903,-910)" stroke-linecap="butt">
      <rect fill="none" x="-656.2113" width="100" height="60" y="1632.6355" clip-path="url(#clipPath2)"/>
      <text x="-646.5385" font-size="30px" y="1673.0212" clip-path="url(#clipPath2)" font-family="sans-serif" stroke="none" xml:space="preserve">[1, 1]</text>
    </g>
    <g fill="rgb(0,204,255)" text-rendering="geometricPrecision" shape-rendering="geometricPrecision" transform="matrix(1,0,0,1,903,-910)" stroke="rgb(0,204,255)">
      <rect x="-556.2113" width="100" height="60" y="1632.6355" clip-path="url(#clipPath2)" stroke="none"/>
    </g>
    <g text-rendering="geometricPrecision" stroke-miterlimit="1.45" shape-rendering="geometricPrecision" transform="matrix(1,0,0,1,903,-910)" stroke-linecap="butt">
      <rect fill="none" x="-556.2113" width="100" height="60" y="1632.6355" clip-path="url(#clipPath2)"/>
      <text x="-546.5385" font-size="30px" y="1673.0212" clip-path="url(#clipPath2)" font-family="sans-serif" stroke="none" xml:space="preserve">[1, 2]</text>
    </g>
    <g fill="rgb(0,204,255)" text-rendering="geometricPrecision" shape-rendering="geometricPrecision" transform="matrix(1,0,0,1,903,-910)" stroke="rgb(0,204,255)">
      <rect x="-456.2113" width="100" height="60" y="1632.6355" clip-path="url(#clipPath2)" stroke="none"/>
    </g>
    <g text-rendering="geometricPrecision" stroke-miterlimit="1.45" shape-rendering="geometricPrecision" transform="matrix(1,0,0,1,903,-910)" stroke-linecap="butt">
      <rect fill="none" x="-456.2113" width="100" height="60" y="1632.6355" clip-path="url(#clipPath2)"/>
      <text x="-446.5385" font-size="30px" y="1673.0212" clip-path="url(#clipPath2)" font-family="sans-serif" stroke="none" xml:space="preserve">[3, 5]</text>
    </g>
    <g fill="rgb(0,204,255)" text-rendering="geometricPrecision" shape-rendering="geometricPrecision" transform="matrix(1,0,0,1,903,-910)" stroke="rgb(0,204,255)">
      <rect x="-256.2113" width="100" height="60" y="1632.6355" clip-path="url(#clipPath2)" stroke="none"/>
    </g>
    <g text-rendering="geometricPrecision" stroke-miterlimit="1.45" shape-rendering="geometricPrecision" transform="matrix(1,0,0,1,903,-910)" stroke-linecap="butt">
      <rect fill="none" x="-256.2113" width="100" height="60" y="1632.6355" clip-path="url(#clipPath2)"/>
      <text x="-246.5385" font-size="30px" y="1673.0212" clip-path="url(#clipPath2)" font-family="sans-serif" stroke="none" xml:space="preserve">[0, 9]</text>
    </g>
    <g fill="rgb(0,204,255)" text-rendering="geometricPrecision" shape-rendering="geometricPrecision" transform="matrix(1,0,0,1,903,-910)" stroke="rgb(0,204,255)">
      <rect x="-356.2113" width="100" height="60" y="1632.6355" clip-path="url(#clipPath2)" stroke="none"/>
    </g>
    <g text-rendering="geometricPrecision" stroke-miterlimit="1.45" shape-rendering="geometricPrecision" transform="matrix(1,0,0,1,903,-910)" stroke-linecap="butt">
      <rect fill="none" x="-356.2113" width="100" height="60" y="1632.6355" clip-path="url(#clipPath2)"/>
      <text x="-346.5385" font-size="30px" y="1673.0212" clip-path="url(#clipPath2)" font-family="sans-serif" stroke="none" xml:space="preserve">[2, 2]</text>
    </g>
    <g fill="rgb(0,204,255)" text-rendering="geometricPrecision" shape-rendering="geometricPrecision" transform="matrix(1,0,0,1,903,-910)" stroke="rgb(0,204,255)">
      <rect x="-656.2113" width="100" height="60" y="1542.6355" clip-path="url(#clipPath2)" stroke="none"/>
    </g>
    <g text-rendering="geometricPrecision" stroke-miterlimit="1.45" shape-rendering="geometricPrecision" transform="matrix(1,0,0,1,903,-910)" stroke-linecap="butt">
      <rect fill="none" x="-656.2113" width="100" height="60" y="1542.6355" clip-path="url(#clipPath2)"/>
      <text x="-646.5385" font-size="30px" y="1583.0212" clip-path="url(#clipPath2)" font-family="sans-serif" stroke="none" xml:space="preserve">[3, 5]</text>
      <text x="-821.6996" font-size="40px" y="1586.4832" clip-path="url(#clipPath2)" font-family="sans-serif" stroke="none" xml:space="preserve">length:</text>
      <text x="-875.2152" font-size="40px" y="1676.4832" clip-path="url(#clipPath2)" font-family="sans-serif" stroke="none" xml:space="preserve">elements:</text>
      <text x="115.3398" font-size="40px" y="1154.8182" clip-path="url(#clipPath2)" font-family="sans-serif" stroke="none" xml:space="preserve">gep</text>
    </g>
    <g fill="rgb(0,204,255)" text-rendering="geometricPrecision" shape-rendering="geometricPrecision" transform="matrix(1,0,0,1,903,-910)" stroke="rgb(0,204,255)">
      <rect x="213.3945" width="100" height="60" y="1110.9705" clip-path="url(#clipPath2)" stroke="none"/>
    </g>
    <g text-rendering="geometricPrecision" stroke-miterlimit="1.45" shape-rendering="geometricPrecision" transform="matrix(1,0,0,1,903,-910)" stroke-linecap="butt">
      <rect fill="none" x="213.3945" width="100" height="60" y="1110.9705" clip-path="url(#clipPath2)"/>
      <text x="223.0674" font-size="30px" y="1151.3563" clip-path="url(#clipPath2)" font-family="sans-serif" stroke="none" xml:space="preserve">[1, 3]</text>
    </g>
    <g fill="silver" text-rendering="geometricPrecision" shape-rendering="geometricPrecision" transform="matrix(1,0,0,1,903,-910)" stroke="silver">
      <rect x="338.375" width="763.25" height="281.25" y="1015.3455" clip-path="url(#clipPath2)" stroke="none"/>
    </g>
    <g text-rendering="geometricPrecision" stroke-miterlimit="1.45" shape-rendering="geometricPrecision" transform="matrix(1,0,0,1,903,-910)" stroke-linecap="butt">
      <rect fill="none" x="338.375" width="763.25" height="281.25" y="1015.3455" clip-path="url(#clipPath2)"/>
    </g>
    <g fill="rgb(0,204,255)" text-rendering="geometricPrecision" shape-rendering="geometricPrecision" transform="matrix(1,0,0,1,903,-910)" stroke="rgb(0,204,255)">
      <rect x="570" width="100" height="60" y="1170.9705" clip-path="url(#clipPath2)" stroke="none"/>
    </g>
    <g text-rendering="geometricPrecision" stroke-miterlimit="1.45" shape-rendering="geometricPrecision" transform="matrix(1,0,0,1,903,-910)" stroke-linecap="butt">
      <rect fill="none" x="570" width="100" height="60" y="1170.9705" clip-path="url(#clipPath2)"/>
      <text x="579.6729" font-size="30px" y="1211.3563" clip-path="url(#clipPath2)" font-family="sans-serif" stroke="none" xml:space="preserve">[1, 1]</text>
    </g>
    <g fill="rgb(0,204,255)" text-rendering="geometricPrecision" shape-rendering="geometricPrecision" transform="matrix(1,0,0,1,903,-910)" stroke="rgb(0,204,255)">
      <rect x="670" width="100" height="60" y="1170.9705" clip-path="url(#clipPath2)" stroke="none"/>
    </g>
    <g text-rendering="geometricPrecision" stroke-miterlimit="1.45" shape-rendering="geometricPrecision" transform="matrix(1,0,0,1,903,-910)" stroke-linecap="butt">
      <rect fill="none" x="670" width="100" height="60" y="1170.9705" clip-path="url(#clipPath2)"/>
      <text x="679.6729" font-size="30px" y="1211.3563" clip-path="url(#clipPath2)" font-family="sans-serif" stroke="none" xml:space="preserve">[1, 2]</text>
    </g>
    <g fill="rgb(0,204,255)" text-rendering="geometricPrecision" shape-rendering="geometricPrecision" transform="matrix(1,0,0,1,903,-910)" stroke="rgb(0,204,255)">
      <rect x="770" width="100" height="60" y="1170.9705" clip-path="url(#clipPath2)" stroke="none"/>
    </g>
    <g text-rendering="geometricPrecision" stroke-miterlimit="1.45" shape-rendering="geometricPrecision" transform="matrix(1,0,0,1,903,-910)" stroke-linecap="butt">
      <rect fill="none" x="770" width="100" height="60" y="1170.9705" clip-path="url(#clipPath2)"/>
      <text x="779.6729" font-size="30px" y="1211.3563" clip-path="url(#clipPath2)" font-family="sans-serif" stroke="none" xml:space="preserve">[5, 6]</text>
    </g>
    <g fill="rgb(0,204,255)" text-rendering="geometricPrecision" shape-rendering="geometricPrecision" transform="matrix(1,0,0,1,903,-910)" stroke="rgb(0,204,255)">
      <rect x="970" width="100" height="60" y="1170.9705" clip-path="url(#clipPath2)" stroke="none"/>
    </g>
    <g text-rendering="geometricPrecision" stroke-miterlimit="1.45" shape-rendering="geometricPrecision" transform="matrix(1,0,0,1,903,-910)" stroke-linecap="butt">
      <rect fill="none" x="970" width="100" height="60" y="1170.9705" clip-path="url(#clipPath2)"/>
      <text x="979.6729" font-size="30px" y="1211.3563" clip-path="url(#clipPath2)" font-family="sans-serif" stroke="none" xml:space="preserve">[0, 9]</text>
    </g>
    <g fill="rgb(0,204,255)" text-rendering="geometricPrecision" shape-rendering="geometricPrecision" transform="matrix(1,0,0,1,903,-910)" stroke="rgb(0,204,255)">
      <rect x="870" width="100" height="60" y="1170.9705" clip-path="url(#clipPath2)" stroke="none"/>
    </g>
    <g text-rendering="geometricPrecision" stroke-miterlimit="1.45" shape-rendering="geometricPrecision" transform="matrix(1,0,0,1,903,-910)" stroke-linecap="butt">
      <rect fill="none" x="870" width="100" height="60" y="1170.9705" clip-path="url(#clipPath2)"/>
      <text x="879.6729" font-size="30px" y="1211.3563" clip-path="url(#clipPath2)" font-family="sans-serif" stroke="none" xml:space="preserve">[2, 2]</text>
    </g>
    <g fill="rgb(0,204,255)" text-rendering="geometricPrecision" shape-rendering="geometricPrecision" transform="matrix(1,0,0,1,903,-910)" stroke="rgb(0,204,255)">
      <rect x="570" width="100" height="60" y="1080.9705" clip-path="url(#clipPath2)" stroke="none"/>
    </g>
    <g text-rendering="geometricPrecision" stroke-miterlimit="1.45" shape-rendering="geometricPrecision" transform="matrix(1,0,0,1,903,-910)" stroke-linecap="butt">
      <rect fill="none" x="570" width="100" height="60" y="1080.9705" clip-path="url(#clipPath2)"/>
      <text x="579.6729" font-size="30px" y="1121.3563" clip-path="url(#clipPath2)" font-family="sans-serif" stroke="none" xml:space="preserve">[3, 5]</text>
      <text x="404.5117" font-size="40px" y="1124.8182" clip-path="url(#clipPath2)" font-family="sans-serif" stroke="none" xml:space="preserve">length:</text>
      <text x="350.9961" font-size="40px" y="1214.8182" clip-path="url(#clipPath2)" font-family="sans-serif" stroke="none" xml:space="preserve">elements:</text>
    </g>
    <g fill="rgb(0,204,255)" text-rendering="geometricPrecision" shape-rendering="geometricPrecision" transform="matrix(1,0,0,1,903,-910)" stroke="rgb(0,204,255)">
      <rect x="770" width="100" height="60" y="925.3455" clip-path="url(#clipPath2)" stroke="none"/>
    </g>
    <g text-rendering="geometricPrecision" stroke-miterlimit="1.45" shape-rendering="geometricPrecision" transform="matrix(1,0,0,1,903,-910)" stroke-linecap="butt">
      <rect fill="none" x="770" width="100" height="60" y="925.3455" clip-path="url(#clipPath2)"/>
      <text x="791.2402" font-size="40px" y="969.1932" clip-path="url(#clipPath2)" font-family="sans-serif" stroke="none" xml:space="preserve">ptr</text>
      <text x="-59.0195" font-size="40px" y="1630.7644" clip-path="url(#clipPath2)" font-family="sans-serif" stroke="none" xml:space="preserve">extrectValue</text>
    </g>
    <g fill="rgb(0,204,255)" text-rendering="geometricPrecision" shape-rendering="geometricPrecision" transform="matrix(1,0,0,1,903,-910)" stroke="rgb(0,204,255)">
      <rect x="208.3633" width="100" height="60" y="1587.6355" clip-path="url(#clipPath2)" stroke="none"/>
    </g>
    <g text-rendering="geometricPrecision" stroke-miterlimit="1.45" shape-rendering="geometricPrecision" transform="matrix(1,0,0,1,903,-910)" stroke-linecap="butt">
      <rect fill="none" x="208.3633" width="100" height="60" y="1587.6355" clip-path="url(#clipPath2)"/>
      <text x="218.0361" font-size="30px" y="1628.0212" clip-path="url(#clipPath2)" font-family="sans-serif" stroke="none" xml:space="preserve">[1, 3]</text>
    </g>
    <g fill="silver" text-rendering="geometricPrecision" shape-rendering="geometricPrecision" transform="matrix(1,0,0,1,903,-910)" stroke="silver">
      <rect x="338.375" width="763.25" height="281.25" y="1522.0105" clip-path="url(#clipPath2)" stroke="none"/>
    </g>
    <g text-rendering="geometricPrecision" stroke-miterlimit="1.45" shape-rendering="geometricPrecision" transform="matrix(1,0,0,1,903,-910)" stroke-linecap="butt">
      <rect fill="none" x="338.375" width="763.25" height="281.25" y="1522.0105" clip-path="url(#clipPath2)"/>
    </g>
    <g fill="rgb(0,204,255)" text-rendering="geometricPrecision" shape-rendering="geometricPrecision" transform="matrix(1,0,0,1,903,-910)" stroke="rgb(0,204,255)">
      <rect x="570" width="100" height="60" y="1677.6355" clip-path="url(#clipPath2)" stroke="none"/>
    </g>
    <g text-rendering="geometricPrecision" stroke-miterlimit="1.45" shape-rendering="geometricPrecision" transform="matrix(1,0,0,1,903,-910)" stroke-linecap="butt">
      <rect fill="none" x="570" width="100" height="60" y="1677.6355" clip-path="url(#clipPath2)"/>
      <text x="579.6729" font-size="30px" y="1718.0212" clip-path="url(#clipPath2)" font-family="sans-serif" stroke="none" xml:space="preserve">[1, 1]</text>
    </g>
    <g fill="rgb(0,204,255)" text-rendering="geometricPrecision" shape-rendering="geometricPrecision" transform="matrix(1,0,0,1,903,-910)" stroke="rgb(0,204,255)">
      <rect x="670" width="100" height="60" y="1677.6355" clip-path="url(#clipPath2)" stroke="none"/>
    </g>
    <g text-rendering="geometricPrecision" stroke-miterlimit="1.45" shape-rendering="geometricPrecision" transform="matrix(1,0,0,1,903,-910)" stroke-linecap="butt">
      <rect fill="none" x="670" width="100" height="60" y="1677.6355" clip-path="url(#clipPath2)"/>
      <text x="679.6729" font-size="30px" y="1718.0212" clip-path="url(#clipPath2)" font-family="sans-serif" stroke="none" xml:space="preserve">[1, 2]</text>
    </g>
    <g fill="rgb(0,204,255)" text-rendering="geometricPrecision" shape-rendering="geometricPrecision" transform="matrix(1,0,0,1,903,-910)" stroke="rgb(0,204,255)">
      <rect x="770" width="100" height="60" y="1677.6355" clip-path="url(#clipPath2)" stroke="none"/>
    </g>
    <g text-rendering="geometricPrecision" stroke-miterlimit="1.45" shape-rendering="geometricPrecision" transform="matrix(1,0,0,1,903,-910)" stroke-linecap="butt">
      <rect fill="none" x="770" width="100" height="60" y="1677.6355" clip-path="url(#clipPath2)"/>
      <text x="779.6729" font-size="30px" y="1718.0212" clip-path="url(#clipPath2)" font-family="sans-serif" stroke="none" xml:space="preserve">[5, 6]</text>
    </g>
    <g fill="rgb(0,204,255)" text-rendering="geometricPrecision" shape-rendering="geometricPrecision" transform="matrix(1,0,0,1,903,-910)" stroke="rgb(0,204,255)">
      <rect x="970" width="100" height="60" y="1677.6355" clip-path="url(#clipPath2)" stroke="none"/>
    </g>
    <g text-rendering="geometricPrecision" stroke-miterlimit="1.45" shape-rendering="geometricPrecision" transform="matrix(1,0,0,1,903,-910)" stroke-linecap="butt">
      <rect fill="none" x="970" width="100" height="60" y="1677.6355" clip-path="url(#clipPath2)"/>
      <text x="979.6729" font-size="30px" y="1718.0212" clip-path="url(#clipPath2)" font-family="sans-serif" stroke="none" xml:space="preserve">[0, 9]</text>
    </g>
    <g fill="rgb(0,204,255)" text-rendering="geometricPrecision" shape-rendering="geometricPrecision" transform="matrix(1,0,0,1,903,-910)" stroke="rgb(0,204,255)">
      <rect x="870" width="100" height="60" y="1677.6355" clip-path="url(#clipPath2)" stroke="none"/>
    </g>
    <g text-rendering="geometricPrecision" stroke-miterlimit="1.45" shape-rendering="geometricPrecision" transform="matrix(1,0,0,1,903,-910)" stroke-linecap="butt">
      <rect fill="none" x="870" width="100" height="60" y="1677.6355" clip-path="url(#clipPath2)"/>
      <text x="879.6729" font-size="30px" y="1718.0212" clip-path="url(#clipPath2)" font-family="sans-serif" stroke="none" xml:space="preserve">[2, 2]</text>
    </g>
    <g fill="rgb(0,204,255)" text-rendering="geometricPrecision" shape-rendering="geometricPrecision" transform="matrix(1,0,0,1,903,-910)" stroke="rgb(0,204,255)">
      <rect x="570" width="100" height="60" y="1587.6355" clip-path="url(#clipPath2)" stroke="none"/>
    </g>
    <g text-rendering="geometricPrecision" stroke-miterlimit="1.45" shape-rendering="geometricPrecision" transform="matrix(1,0,0,1,903,-910)" stroke-linecap="butt">
      <rect fill="none" x="570" width="100" height="60" y="1587.6355" clip-path="url(#clipPath2)"/>
      <text x="579.6729" font-size="30px" y="1628.0212" clip-path="url(#clipPath2)" font-family="sans-serif" stroke="none" xml:space="preserve">[3, 5]</text>
      <text x="404.5117" font-size="40px" y="1631.4832" clip-path="url(#clipPath2)" font-family="sans-serif" stroke="none" xml:space="preserve">length:</text>
      <text x="350.9961" font-size="40px" y="1721.4832" clip-path="url(#clipPath2)" font-family="sans-serif" stroke="none" xml:space="preserve">elements:</text>
    </g>
    <g fill="rgb(0,204,255)" text-rendering="geometricPrecision" shape-rendering="geometricPrecision" transform="matrix(1,0,0,1,903,-910)" stroke="rgb(0,204,255)">
      <rect x="770" width="100" height="60" y="1432.0105" clip-path="url(#clipPath2)" stroke="none"/>
    </g>
    <g text-rendering="geometricPrecision" stroke-miterlimit="1.45" shape-rendering="geometricPrecision" transform="matrix(1,0,0,1,903,-910)" stroke-linecap="butt">
      <rect fill="none" x="770" width="100" height="60" y="1432.0105" clip-path="url(#clipPath2)"/>
      <text x="779.6729" font-size="30px" y="1472.3962" clip-path="url(#clipPath2)" font-family="sans-serif" stroke="none" xml:space="preserve">[2, 6]</text>
      <text x="-121.8574" font-size="40px" y="2116.8044" clip-path="url(#clipPath2)" font-family="sans-serif" stroke="none" xml:space="preserve">insertValue</text>
    </g>
    <g fill="rgb(0,204,255)" text-rendering="geometricPrecision" shape-rendering="geometricPrecision" transform="matrix(1,0,0,1,903,-910)" stroke="rgb(0,204,255)">
      <rect x="116.5312" width="100" height="60" y="2073.6754" clip-path="url(#clipPath2)" stroke="none"/>
    </g>
    <g text-rendering="geometricPrecision" stroke-miterlimit="1.45" shape-rendering="geometricPrecision" transform="matrix(1,0,0,1,903,-910)" stroke-linecap="butt">
      <rect fill="none" x="116.5312" width="100" height="60" y="2073.6754" clip-path="url(#clipPath2)"/>
      <text x="126.2041" font-size="30px" y="2114.0613" clip-path="url(#clipPath2)" font-family="sans-serif" stroke="none" xml:space="preserve">[1, 3]</text>
    </g>
    <g fill="rgb(0,204,255)" text-rendering="geometricPrecision" shape-rendering="geometricPrecision" transform="matrix(1,0,0,1,903,-910)" stroke="rgb(0,204,255)">
      <rect x="216.5312" width="100" height="60" y="2073.6754" clip-path="url(#clipPath2)" stroke="none"/>
    </g>
    <g text-rendering="geometricPrecision" stroke-miterlimit="1.45" shape-rendering="geometricPrecision" transform="matrix(1,0,0,1,903,-910)" stroke-linecap="butt">
      <rect fill="none" x="216.5312" width="100" height="60" y="2073.6754" clip-path="url(#clipPath2)"/>
      <text x="226.2041" font-size="30px" y="2114.0613" clip-path="url(#clipPath2)" font-family="sans-serif" stroke="none" xml:space="preserve">[4, 7]</text>
    </g>
    <g fill="silver" text-rendering="geometricPrecision" shape-rendering="geometricPrecision" transform="matrix(1,0,0,1,903,-910)" stroke="silver">
      <rect x="338.375" width="763.25" height="281.25" y="1963.0504" clip-path="url(#clipPath2)" stroke="none"/>
    </g>
    <g text-rendering="geometricPrecision" stroke-miterlimit="1.45" shape-rendering="geometricPrecision" transform="matrix(1,0,0,1,903,-910)" stroke-linecap="butt">
      <rect fill="none" x="338.375" width="763.25" height="281.25" y="1963.0504" clip-path="url(#clipPath2)"/>
    </g>
    <g fill="rgb(0,204,255)" text-rendering="geometricPrecision" shape-rendering="geometricPrecision" transform="matrix(1,0,0,1,903,-910)" stroke="rgb(0,204,255)">
      <rect x="570" width="100" height="60" y="2118.6754" clip-path="url(#clipPath2)" stroke="none"/>
    </g>
    <g text-rendering="geometricPrecision" stroke-miterlimit="1.45" shape-rendering="geometricPrecision" transform="matrix(1,0,0,1,903,-910)" stroke-linecap="butt">
      <rect fill="none" x="570" width="100" height="60" y="2118.6754" clip-path="url(#clipPath2)"/>
      <text x="579.6729" font-size="30px" y="2159.0613" clip-path="url(#clipPath2)" font-family="sans-serif" stroke="none" xml:space="preserve">[1, 1]</text>
    </g>
    <g fill="rgb(0,204,255)" text-rendering="geometricPrecision" shape-rendering="geometricPrecision" transform="matrix(1,0,0,1,903,-910)" stroke="rgb(0,204,255)">
      <rect x="670" width="100" height="60" y="2118.6754" clip-path="url(#clipPath2)" stroke="none"/>
    </g>
    <g text-rendering="geometricPrecision" stroke-miterlimit="1.45" shape-rendering="geometricPrecision" transform="matrix(1,0,0,1,903,-910)" stroke-linecap="butt">
      <rect fill="none" x="670" width="100" height="60" y="2118.6754" clip-path="url(#clipPath2)"/>
      <text x="679.6729" font-size="30px" y="2159.0613" clip-path="url(#clipPath2)" font-family="sans-serif" stroke="none" xml:space="preserve">[1, 7]</text>
    </g>
    <g fill="rgb(0,204,255)" text-rendering="geometricPrecision" shape-rendering="geometricPrecision" transform="matrix(1,0,0,1,903,-910)" stroke="rgb(0,204,255)">
      <rect x="770" width="100" height="60" y="2118.6754" clip-path="url(#clipPath2)" stroke="none"/>
    </g>
    <g text-rendering="geometricPrecision" stroke-miterlimit="1.45" shape-rendering="geometricPrecision" transform="matrix(1,0,0,1,903,-910)" stroke-linecap="butt">
      <rect fill="none" x="770" width="100" height="60" y="2118.6754" clip-path="url(#clipPath2)"/>
      <text x="779.6729" font-size="30px" y="2159.0613" clip-path="url(#clipPath2)" font-family="sans-serif" stroke="none" xml:space="preserve">[4, 7]</text>
    </g>
    <g fill="rgb(0,204,255)" text-rendering="geometricPrecision" shape-rendering="geometricPrecision" transform="matrix(1,0,0,1,903,-910)" stroke="rgb(0,204,255)">
      <rect x="970" width="100" height="60" y="2118.6754" clip-path="url(#clipPath2)" stroke="none"/>
    </g>
    <g text-rendering="geometricPrecision" stroke-miterlimit="1.45" shape-rendering="geometricPrecision" transform="matrix(1,0,0,1,903,-910)" stroke-linecap="butt">
      <rect fill="none" x="970" width="100" height="60" y="2118.6754" clip-path="url(#clipPath2)"/>
      <text x="979.6729" font-size="30px" y="2159.0613" clip-path="url(#clipPath2)" font-family="sans-serif" stroke="none" xml:space="preserve">[0, 9]</text>
    </g>
    <g fill="rgb(0,204,255)" text-rendering="geometricPrecision" shape-rendering="geometricPrecision" transform="matrix(1,0,0,1,903,-910)" stroke="rgb(0,204,255)">
      <rect x="870" width="100" height="60" y="2118.6754" clip-path="url(#clipPath2)" stroke="none"/>
    </g>
    <g text-rendering="geometricPrecision" stroke-miterlimit="1.45" shape-rendering="geometricPrecision" transform="matrix(1,0,0,1,903,-910)" stroke-linecap="butt">
      <rect fill="none" x="870" width="100" height="60" y="2118.6754" clip-path="url(#clipPath2)"/>
      <text x="879.6729" font-size="30px" y="2159.0613" clip-path="url(#clipPath2)" font-family="sans-serif" stroke="none" xml:space="preserve">[2, 7]</text>
    </g>
    <g fill="rgb(0,204,255)" text-rendering="geometricPrecision" shape-rendering="geometricPrecision" transform="matrix(1,0,0,1,903,-910)" stroke="rgb(0,204,255)">
      <rect x="570" width="100" height="60" y="2028.6754" clip-path="url(#clipPath2)" stroke="none"/>
    </g>
    <g text-rendering="geometricPrecision" stroke-miterlimit="1.45" shape-rendering="geometricPrecision" transform="matrix(1,0,0,1,903,-910)" stroke-linecap="butt">
      <rect fill="none" x="570" width="100" height="60" y="2028.6754" clip-path="url(#clipPath2)"/>
      <text x="579.6729" font-size="30px" y="2069.0613" clip-path="url(#clipPath2)" font-family="sans-serif" stroke="none" xml:space="preserve">[3, 5]</text>
      <text x="404.5117" font-size="40px" y="2072.5232" clip-path="url(#clipPath2)" font-family="sans-serif" stroke="none" xml:space="preserve">length:</text>
      <text x="350.9961" font-size="40px" y="2162.5232" clip-path="url(#clipPath2)" font-family="sans-serif" stroke="none" xml:space="preserve">elements:</text>
    </g>
    <g fill="rgb(0,204,255)" text-rendering="geometricPrecision" shape-rendering="geometricPrecision" transform="matrix(1,0,0,1,903,-910)" stroke="rgb(0,204,255)">
      <rect x="770" width="100" height="60" y="1873.0504" clip-path="url(#clipPath2)" stroke="none"/>
    </g>
    <g text-rendering="geometricPrecision" stroke-miterlimit="1.45" shape-rendering="geometricPrecision" transform="matrix(1,0,0,1,903,-910)" stroke-linecap="butt">
      <rect fill="none" x="770" width="100" height="60" y="1873.0504" clip-path="url(#clipPath2)"/>
      <text x="779.6729" font-size="30px" y="1913.4362" clip-path="url(#clipPath2)" font-family="sans-serif" stroke="none" xml:space="preserve">[4, 7]</text>
      <text x="310.4778" font-size="40px" y="1630.7644" clip-path="url(#clipPath2)" font-family="sans-serif" stroke="none" xml:space="preserve">:</text>
      <text x="318.634" font-size="40px" y="1154.0995" clip-path="url(#clipPath2)" font-family="sans-serif" stroke="none" xml:space="preserve">:</text>
      <text x="318.634" font-size="40px" y="2116.8044" clip-path="url(#clipPath2)" font-family="sans-serif" stroke="none" xml:space="preserve">:</text>
      <path fill="none" d="M807.7863 985.3455 L735.9844 1161.7087" stroke-width="3" clip-path="url(#clipPath2)"/>
      <path d="M732.2137 1170.9706 L743.6584 1159.4344 L736.4557 1160.551 L732.0811 1154.7211 Z" stroke-width="3" clip-path="url(#clipPath2)" stroke="none"/>
      <path fill="none" d="M820 985.3455 L820 1160.9706" stroke-width="3" clip-path="url(#clipPath2)"/>
      <path d="M820 1170.9706 L826.25 1155.9706 L820 1159.7206 L813.75 1155.9706 Z" stroke-width="3" clip-path="url(#clipPath2)" stroke="none"/>
      <path fill="none" d="M832.2137 985.3455 L904.0156 1161.7087" stroke-width="3" clip-path="url(#clipPath2)"/>
      <path d="M907.7863 1170.9706 L907.9189 1154.7211 L903.5443 1160.551 L896.3416 1159.4344 Z" stroke-width="3" clip-path="url(#clipPath2)" stroke="none"/>
      <path fill="none" d="M804.0156 1501.2723 L732.2137 1677.6355" stroke-width="3" clip-path="url(#clipPath2)"/>
      <path d="M807.7863 1492.0105 L796.3416 1503.5466 L803.5443 1502.4301 L807.9189 1508.26 Z" stroke-width="3" clip-path="url(#clipPath2)" stroke="none"/>
      <path fill="none" d="M820 1502.0105 L820 1677.6355" stroke-width="3" clip-path="url(#clipPath2)"/>
      <path d="M820 1492.0105 L813.75 1507.0105 L820 1503.2605 L826.25 1507.0105 Z" stroke-width="3" clip-path="url(#clipPath2)" stroke="none"/>
      <path fill="none" d="M835.9844 1501.2723 L907.7863 1677.6355" stroke-width="3" clip-path="url(#clipPath2)"/>
      <path d="M832.2137 1492.0105 L832.0811 1508.26 L836.4557 1502.4301 L843.6584 1503.5466 Z" stroke-width="3" clip-path="url(#clipPath2)" stroke="none"/>
      <path fill="none" d="M820 1933.0504 L820 2108.6755" stroke-width="3" clip-path="url(#clipPath2)"/>
      <path d="M820 2118.6755 L826.25 2103.6755 L820 2107.4255 L813.75 2103.6755 Z" stroke-width="3" clip-path="url(#clipPath2)" stroke="none"/>
      <path fill="none" d="M807.7863 1933.0504 L735.9844 2109.4136" stroke-width="3" clip-path="url(#clipPath2)"/>
      <path d="M732.2138 2118.6755 L743.6584 2107.1394 L736.4558 2108.2559 L732.0811 2102.426 Z" stroke-width="3" clip-path="url(#clipPath2)" stroke="none"/>
      <path fill="none" d="M832.2137 1933.0504 L904.0156 2109.4136" stroke-width="3" clip-path="url(#clipPath2)"/>
      <path d="M907.7862 2118.6755 L907.9189 2102.426 L903.5442 2108.2559 L896.3416 2107.1394 Z" stroke-width="3" clip-path="url(#clipPath2)" stroke="none"/>
    </g>
  </g>
</svg>
