<?xml version="1.0" encoding="UTF-8"?><svg xmlns="http://www.w3.org/2000/svg" xmlns:xlink="http://www.w3.org/1999/xlink" fill-opacity="1" color-rendering="auto" color-interpolation="auto" text-rendering="auto" stroke="black" stroke-linecap="square" width="1352" stroke-miterlimit="10" shape-rendering="auto" stroke-opacity="1" fill="black" stroke-dasharray="none" font-weight="normal" stroke-width="1" height="1052" font-family="'Dialog'" font-style="normal" stroke-linejoin="miter" font-size="12px" stroke-dashoffset="0" image-rendering="auto">
  <!--Generated by ySVG 2.5-->
  <defs id="genericDefs"/>
  <g>
    <defs id="defs1">
      <clipPath clipPathUnits="userSpaceOnUse" id="clipPath1">
        <path d="M0 0 L1352 0 L1352 1052 L0 1052 L0 0 Z"/>
      </clipPath>
      <clipPath clipPathUnits="userSpaceOnUse" id="clipPath2">
        <path d="M-439 68 L913 68 L913 1120 L-439 1120 L-439 68 Z"/>
      </clipPath>
    </defs>
    <g fill="rgb(255,204,0)" text-rendering="geometricPrecision" shape-rendering="geometricPrecision" transform="matrix(1,0,0,1,439,-68)" stroke="rgb(255,204,0)">
      <ellipse rx="178.5" ry="41" clip-path="url(#clipPath2)" cx="249.5" cy="124" stroke="none"/>
    </g>
    <g text-rendering="geometricPrecision" stroke-miterlimit="1.45" shape-rendering="geometricPrecision" transform="matrix(1,0,0,1,439,-68)" stroke-linecap="butt">
      <ellipse rx="178.5" fill="none" ry="41" clip-path="url(#clipPath2)" cx="249.5" cy="124"/>
      <text x="136.8315" font-size="30px" y="116.9248" clip-path="url(#clipPath2)" font-family="sans-serif" stroke="none" xml:space="preserve">Исходный код</text>
      <text x="159.9248" font-size="30px" y="151.8467" clip-path="url(#clipPath2)" font-family="sans-serif" stroke="none" xml:space="preserve">программы</text>
    </g>
    <g fill="rgb(0,204,255)" text-rendering="geometricPrecision" shape-rendering="geometricPrecision" transform="matrix(1,0,0,1,439,-68)" stroke="rgb(0,204,255)">
      <rect x="87.5" width="324" height="45" y="210" clip-path="url(#clipPath2)" stroke="none"/>
    </g>
    <g text-rendering="geometricPrecision" stroke-miterlimit="1.45" shape-rendering="geometricPrecision" transform="matrix(1,0,0,1,439,-68)" stroke-linecap="butt">
      <rect fill="none" x="87.5" width="324" height="45" y="210" clip-path="url(#clipPath2)"/>
      <text x="98.2183" font-size="30px" y="242.8857" clip-path="url(#clipPath2)" font-family="sans-serif" stroke="none" xml:space="preserve">АИ исходного кода</text>
    </g>
    <g fill="rgb(255,204,0)" text-rendering="geometricPrecision" shape-rendering="geometricPrecision" transform="matrix(1,0,0,1,439,-68)" stroke="rgb(255,204,0)">
      <ellipse rx="131.5" ry="46" clip-path="url(#clipPath2)" cx="-292.1" cy="880" stroke="none"/>
    </g>
    <g text-rendering="geometricPrecision" stroke-miterlimit="1.45" shape-rendering="geometricPrecision" transform="matrix(1,0,0,1,439,-68)" stroke-linecap="butt">
      <ellipse rx="131.5" fill="none" ry="46" clip-path="url(#clipPath2)" cx="-292.1" cy="880"/>
      <text x="-388.1059" font-size="30px" y="872.9248" clip-path="url(#clipPath2)" font-family="sans-serif" stroke="none" xml:space="preserve">Хранилище </text>
      <text x="-352.2392" font-size="30px" y="907.8467" clip-path="url(#clipPath2)" font-family="sans-serif" stroke="none" xml:space="preserve">ошибок</text>
    </g>
    <g fill="rgb(0,204,255)" text-rendering="geometricPrecision" shape-rendering="geometricPrecision" transform="matrix(1,0,0,1,439,-68)" stroke="rgb(0,204,255)">
      <rect x="100.5" width="298" height="75" y="274.5" clip-path="url(#clipPath2)" stroke="none"/>
    </g>
    <g text-rendering="geometricPrecision" stroke-miterlimit="1.45" shape-rendering="geometricPrecision" transform="matrix(1,0,0,1,439,-68)" stroke-linecap="butt">
      <rect fill="none" x="100.5" width="298" height="75" y="274.5" clip-path="url(#clipPath2)"/>
      <text x="113.3281" font-size="30px" y="304.9248" clip-path="url(#clipPath2)" font-family="sans-serif" stroke="none" xml:space="preserve">Поиск ошибок по</text>
      <text x="122.0439" font-size="30px" y="339.8467" clip-path="url(#clipPath2)" font-family="sans-serif" stroke="none" xml:space="preserve">результатам АИ</text>
    </g>
    <g fill="silver" text-rendering="geometricPrecision" shape-rendering="geometricPrecision" transform="matrix(1,0,0,1,439,-68)" stroke="silver">
      <rect x="15.5" width="468" height="75" y="486.5" clip-path="url(#clipPath2)" stroke="none"/>
    </g>
    <g text-rendering="geometricPrecision" stroke-miterlimit="1.45" shape-rendering="geometricPrecision" transform="matrix(1,0,0,1,439,-68)" stroke-linecap="butt">
      <rect fill="none" x="15.5" width="468" height="75" y="486.5" clip-path="url(#clipPath2)"/>
      <text x="39.2217" font-size="30px" y="516.9248" clip-path="url(#clipPath2)" font-family="sans-serif" stroke="none" xml:space="preserve">Построение упрощенного </text>
      <text x="33.8164" font-size="30px" y="551.8467" clip-path="url(#clipPath2)" font-family="sans-serif" stroke="none" xml:space="preserve">представления программы</text>
    </g>
    <g fill="silver" text-rendering="geometricPrecision" shape-rendering="geometricPrecision" transform="matrix(1,0,0,1,439,-68)" stroke="silver">
      <path d="M89 886 L251 808.5 L413 886 L251 963.5 Z" fill-rule="evenodd" clip-path="url(#clipPath2)" stroke="none"/>
    </g>
    <g text-rendering="geometricPrecision" stroke-miterlimit="1.45" shape-rendering="geometricPrecision" transform="matrix(1,0,0,1,439,-68)" stroke-linecap="butt">
      <path fill="none" d="M89 886 L251 808.5 L413 886 L251 963.5 Z" fill-rule="evenodd" clip-path="url(#clipPath2)"/>
      <text x="210.9292" font-size="30px" y="861.4639" clip-path="url(#clipPath2)" font-family="sans-serif" stroke="none" xml:space="preserve">Есть </text>
      <text x="127.2354" font-size="30px" y="896.3857" clip-path="url(#clipPath2)" font-family="sans-serif" stroke="none" xml:space="preserve">информация об</text>
      <text x="182.8481" font-size="30px" y="931.3076" clip-path="url(#clipPath2)" font-family="sans-serif" stroke="none" xml:space="preserve">ошибке?</text>
    </g>
    <g fill="silver" text-rendering="geometricPrecision" shape-rendering="geometricPrecision" transform="matrix(1,0,0,1,439,-68)" stroke="silver">
      <rect x="23.5" width="455" height="45" y="1026.5" clip-path="url(#clipPath2)" stroke="none"/>
    </g>
    <g text-rendering="geometricPrecision" stroke-miterlimit="1.45" shape-rendering="geometricPrecision" transform="matrix(1,0,0,1,439,-68)" stroke-linecap="butt">
      <rect fill="none" x="23.5" width="455" height="45" y="1026.5" clip-path="url(#clipPath2)"/>
      <text x="43.8491" font-size="30px" y="1059.3857" clip-path="url(#clipPath2)" font-family="sans-serif" stroke="none" xml:space="preserve">Проверка с помощью BMC</text>
    </g>
    <g fill="silver" text-rendering="geometricPrecision" shape-rendering="geometricPrecision" transform="matrix(1,0,0,1,439,-68)" stroke="silver">
      <path d="M15.5 418 L62.3 369 L436.7 369 L483.5 418 L436.7 467 L62.3 467 Z" fill-rule="evenodd" clip-path="url(#clipPath2)" stroke="none"/>
    </g>
    <g text-rendering="geometricPrecision" stroke-miterlimit="1.45" shape-rendering="geometricPrecision" transform="matrix(1,0,0,1,439,-68)" stroke-linecap="butt">
      <path fill="none" d="M15.5 418 L62.3 369 L436.7 369 L483.5 418 L436.7 467 L62.3 467 Z" fill-rule="evenodd" clip-path="url(#clipPath2)"/>
      <text x="44.8101" font-size="30px" y="410.9248" clip-path="url(#clipPath2)" font-family="sans-serif" stroke="none" xml:space="preserve">Для всех потенциальных </text>
      <text x="84.0239" font-size="30px" y="445.8467" clip-path="url(#clipPath2)" font-family="sans-serif" stroke="none" xml:space="preserve">ошибок в программе</text>
    </g>
    <g fill="silver" text-rendering="geometricPrecision" shape-rendering="geometricPrecision" transform="matrix(1,0,0,1,439,-68)" stroke="silver">
      <path d="M537.4 886 L703.4 811 L869.4 886 L703.4 961 Z" fill-rule="evenodd" clip-path="url(#clipPath2)" stroke="none"/>
    </g>
    <g text-rendering="geometricPrecision" stroke-miterlimit="1.45" shape-rendering="geometricPrecision" transform="matrix(1,0,0,1,439,-68)" stroke-linecap="butt">
      <path fill="none" d="M537.4 886 L703.4 811 L869.4 886 L703.4 961 Z" fill-rule="evenodd" clip-path="url(#clipPath2)"/>
      <text x="635.2921" font-size="30px" y="861.4639" clip-path="url(#clipPath2)" font-family="sans-serif" stroke="none" xml:space="preserve">Ошибки </text>
      <text x="569.0299" font-size="30px" y="896.3857" clip-path="url(#clipPath2)" font-family="sans-serif" stroke="none" xml:space="preserve">гарантированно </text>
      <text x="667.6652" font-size="30px" y="931.3076" clip-path="url(#clipPath2)" font-family="sans-serif" stroke="none" xml:space="preserve">нет?</text>
    </g>
    <g fill="rgb(0,204,255)" text-rendering="geometricPrecision" shape-rendering="geometricPrecision" transform="matrix(1,0,0,1,439,-68)" stroke="rgb(0,204,255)">
      <rect x="102" width="298" height="75" y="703.5" clip-path="url(#clipPath2)" stroke="none"/>
    </g>
    <g text-rendering="geometricPrecision" stroke-miterlimit="1.45" shape-rendering="geometricPrecision" transform="matrix(1,0,0,1,439,-68)" stroke-linecap="butt">
      <rect fill="none" x="102" width="298" height="75" y="703.5" clip-path="url(#clipPath2)"/>
      <text x="114.8281" font-size="30px" y="733.9248" clip-path="url(#clipPath2)" font-family="sans-serif" stroke="none" xml:space="preserve">Поиск ошибок по</text>
      <text x="123.5439" font-size="30px" y="768.8467" clip-path="url(#clipPath2)" font-family="sans-serif" stroke="none" xml:space="preserve">результатам АИ</text>
    </g>
    <g fill="rgb(0,204,255)" text-rendering="geometricPrecision" shape-rendering="geometricPrecision" transform="matrix(1,0,0,1,439,-68)" stroke="rgb(0,204,255)">
      <rect x="89" width="324" height="75" y="595" clip-path="url(#clipPath2)" stroke="none"/>
    </g>
    <g text-rendering="geometricPrecision" stroke-miterlimit="1.45" shape-rendering="geometricPrecision" transform="matrix(1,0,0,1,439,-68)" stroke-linecap="butt">
      <rect fill="none" x="89" width="324" height="75" y="595" clip-path="url(#clipPath2)"/>
      <text x="113.3926" font-size="30px" y="625.4248" clip-path="url(#clipPath2)" font-family="sans-serif" stroke="none" xml:space="preserve">АИ упрощенного </text>
      <text x="129.6597" font-size="30px" y="660.3467" clip-path="url(#clipPath2)" font-family="sans-serif" stroke="none" xml:space="preserve">представления</text>
      <path fill="none" d="M249.5 165 L249.5 202" clip-path="url(#clipPath2)"/>
      <path d="M249.5 210 L254.5 198 L249.5 201 L244.5 198 Z" clip-path="url(#clipPath2)" stroke="none"/>
      <path fill="none" d="M249.5 255 L249.5 266.5" clip-path="url(#clipPath2)"/>
      <path d="M249.5 274.5 L254.5 262.5 L249.5 265.5 L244.5 262.5 Z" clip-path="url(#clipPath2)" stroke="none"/>
      <path fill="none" stroke-dasharray="6,2" d="M100.5 312 L-292.1 312 L-292.1 826" clip-path="url(#clipPath2)"/>
      <path stroke-dasharray="6,2" d="M-292.1 834 L-287.1 822 L-292.1 825 L-297.1 822 Z" clip-path="url(#clipPath2)" stroke="none"/>
      <text x="-288.7773" font-size="20px" y="516.3729" clip-path="url(#clipPath2)" font-family="sans-serif" stroke="none" xml:space="preserve">Сохранение информации </text>
      <text x="-213.0009" font-size="20px" y="539.6542" clip-path="url(#clipPath2)" font-family="sans-serif" stroke="none" xml:space="preserve">об ошибках</text>
      <path fill="none" stroke-dasharray="6,2" d="M-161.7281 886 L80.9971 886" clip-path="url(#clipPath2)"/>
      <path stroke-dasharray="6,2" d="M88.9971 886 L76.9971 881 L79.9971 886 L76.9971 891 Z" clip-path="url(#clipPath2)" stroke="none"/>
      <text x="-142.8699" font-size="20px" y="881.2832" clip-path="url(#clipPath2)" font-family="sans-serif" stroke="none" xml:space="preserve">Чтение информации</text>
      <text x="-89.7302" font-size="20px" y="904.5645" clip-path="url(#clipPath2)" font-family="sans-serif" stroke="none" xml:space="preserve">об ошибке</text>
      <path fill="none" d="M251 963.4807 L251 1018.5" clip-path="url(#clipPath2)"/>
      <path d="M251 1026.5 L256 1014.5 L251 1017.5 L246 1014.5 Z" clip-path="url(#clipPath2)" stroke="none"/>
      <text x="261.5029" font-size="20px" y="1001.9238" clip-path="url(#clipPath2)" font-family="sans-serif" stroke="none" xml:space="preserve">Нет</text>
      <path fill="none" stroke-dasharray="6,2" d="M23.5 1049 L-292.1 1049 L-292.1 934" clip-path="url(#clipPath2)"/>
      <path stroke-dasharray="6,2" d="M-292.1 926 L-297.1 938 L-292.1 935 L-287.1 938 Z" clip-path="url(#clipPath2)" stroke="none"/>
      <text x="-284.9411" font-size="20px" y="1044.2832" clip-path="url(#clipPath2)" font-family="sans-serif" stroke="none" xml:space="preserve">Сохранение информации </text>
      <text x="-209.1647" font-size="20px" y="1067.5645" clip-path="url(#clipPath2)" font-family="sans-serif" stroke="none" xml:space="preserve">об ошибках</text>
      <path fill="none" d="M249.5 349.5 L249.5 360.9998" clip-path="url(#clipPath2)"/>
      <path d="M249.5 368.9998 L254.5 356.9998 L249.5 359.9998 L244.5 356.9998 Z" clip-path="url(#clipPath2)" stroke="none"/>
      <path fill="none" d="M251 1071.5 L251 1104.75 L898 1104.75 L898 418 L483.4966 418" clip-path="url(#clipPath2)"/>
      <path fill="none" d="M249.5 466.9888 L249.5 478.5" clip-path="url(#clipPath2)"/>
      <path d="M249.5 486.5 L254.5 474.5 L249.5 477.5 L244.5 474.5 Z" clip-path="url(#clipPath2)" stroke="none"/>
      <path fill="none" d="M413.0014 886 L529.3921 886" clip-path="url(#clipPath2)"/>
      <path d="M537.3921 886 L525.3921 881 L528.3921 886 L525.3921 891 Z" clip-path="url(#clipPath2)" stroke="none"/>
      <text x="420" font-size="20px" y="922.9238" clip-path="url(#clipPath2)" font-family="sans-serif" stroke="none" xml:space="preserve">Да</text>
      <path fill="none" d="M703.4 961.0134 L703.4 1049 L486.5 1049" clip-path="url(#clipPath2)"/>
      <path d="M478.5 1049 L490.5 1054 L487.5 1049 L490.5 1044 Z" clip-path="url(#clipPath2)" stroke="none"/>
      <text x="719.9162" font-size="20px" y="986.5645" clip-path="url(#clipPath2)" font-family="sans-serif" stroke="none" xml:space="preserve">Нет</text>
      <path fill="none" d="M703.4 811.0183 L703.4 418 L491.5145 418" clip-path="url(#clipPath2)"/>
      <path d="M483.5145 418 L495.5145 423 L492.5145 418 L495.5145 413 Z" clip-path="url(#clipPath2)" stroke="none"/>
      <text x="719.4596" font-size="20px" y="799.2832" clip-path="url(#clipPath2)" font-family="sans-serif" stroke="none" xml:space="preserve">Да</text>
      <path fill="none" d="M251 778.5 L251 800.4982" clip-path="url(#clipPath2)"/>
      <path d="M251 808.4982 L256 796.4982 L251 799.4982 L246 796.4982 Z" clip-path="url(#clipPath2)" stroke="none"/>
      <path fill="none" stroke-dasharray="6,2" d="M102 741 L-217 741 L-292.1 741 L-292.1 833.9686" clip-path="url(#clipPath2)"/>
      <path fill="none" d="M250.0184 561.5 L250.4816 595" clip-path="url(#clipPath2)"/>
      <path fill="none" d="M251 670 L251 695.5" clip-path="url(#clipPath2)"/>
      <path d="M251 703.5 L256 691.5 L251 694.5 L246 691.5 Z" clip-path="url(#clipPath2)" stroke="none"/>
    </g>
  </g>
</svg>
