<?xml version="1.0" encoding="UTF-8"?><svg xmlns="http://www.w3.org/2000/svg" xmlns:xlink="http://www.w3.org/1999/xlink" fill-opacity="1" color-rendering="auto" color-interpolation="auto" text-rendering="auto" stroke="black" stroke-linecap="square" width="673" stroke-miterlimit="10" shape-rendering="auto" stroke-opacity="1" fill="black" stroke-dasharray="none" font-weight="normal" stroke-width="1" height="575" font-family="'Dialog'" font-style="normal" stroke-linejoin="miter" font-size="12px" stroke-dashoffset="0" image-rendering="auto">
  <!--Generated by ySVG 2.5-->
  <defs id="genericDefs"/>
  <g>
    <defs id="defs1">
      <clipPath clipPathUnits="userSpaceOnUse" id="clipPath1">
        <path d="M0 0 L673 0 L673 575 L0 575 L0 0 Z"/>
      </clipPath>
      <clipPath clipPathUnits="userSpaceOnUse" id="clipPath2">
        <path d="M279 242 L952 242 L952 817 L279 817 L279 242 Z"/>
      </clipPath>
    </defs>
    <g fill="rgb(0,204,255)" text-rendering="geometricPrecision" shape-rendering="geometricPrecision" transform="matrix(1,0,0,1,-279,-242)" stroke="rgb(0,204,255)">
      <rect x="545" width="100" height="60" y="517.1176" clip-path="url(#clipPath2)" stroke="none"/>
    </g>
    <g text-rendering="geometricPrecision" stroke-miterlimit="1.45" shape-rendering="geometricPrecision" transform="matrix(1,0,0,1,-279,-242)" stroke-linecap="butt">
      <rect fill="none" x="545" width="100" height="60" y="517.1176" clip-path="url(#clipPath2)"/>
      <text x="554.6729" font-size="30px" y="557.5034" clip-path="url(#clipPath2)" font-family="sans-serif" stroke="none" xml:space="preserve">[1, 1]</text>
    </g>
    <g fill="rgb(0,204,255)" text-rendering="geometricPrecision" shape-rendering="geometricPrecision" transform="matrix(1,0,0,1,-279,-242)" stroke="rgb(0,204,255)">
      <rect x="645" width="100" height="60" y="517.1176" clip-path="url(#clipPath2)" stroke="none"/>
    </g>
    <g text-rendering="geometricPrecision" stroke-miterlimit="1.45" shape-rendering="geometricPrecision" transform="matrix(1,0,0,1,-279,-242)" stroke-linecap="butt">
      <rect fill="none" x="645" width="100" height="60" y="517.1176" clip-path="url(#clipPath2)"/>
      <text x="654.6729" font-size="30px" y="557.5034" clip-path="url(#clipPath2)" font-family="sans-serif" stroke="none" xml:space="preserve">[2, 2]</text>
    </g>
    <g fill="rgb(0,204,255)" text-rendering="geometricPrecision" shape-rendering="geometricPrecision" transform="matrix(1,0,0,1,-279,-242)" stroke="rgb(0,204,255)">
      <rect x="745" width="100" height="60" y="517.1176" clip-path="url(#clipPath2)" stroke="none"/>
    </g>
    <g text-rendering="geometricPrecision" stroke-miterlimit="1.45" shape-rendering="geometricPrecision" transform="matrix(1,0,0,1,-279,-242)" stroke-linecap="butt">
      <rect fill="none" x="745" width="100" height="60" y="517.1176" clip-path="url(#clipPath2)"/>
      <text x="754.6729" font-size="30px" y="557.5034" clip-path="url(#clipPath2)" font-family="sans-serif" stroke="none" xml:space="preserve">[3, 5]</text>
    </g>
    <g fill="rgb(0,204,255)" text-rendering="geometricPrecision" shape-rendering="geometricPrecision" transform="matrix(1,0,0,1,-279,-242)" stroke="rgb(0,204,255)">
      <rect x="508" width="117" height="60" y="300.7656" clip-path="url(#clipPath2)" stroke="none"/>
    </g>
    <g text-rendering="geometricPrecision" stroke-miterlimit="1.45" shape-rendering="geometricPrecision" transform="matrix(1,0,0,1,-279,-242)" stroke-linecap="butt">
      <rect fill="none" x="508" width="117" height="60" y="300.7656" clip-path="url(#clipPath2)"/>
      <text x="527.5864" font-size="30px" y="341.1514" clip-path="url(#clipPath2)" font-family="sans-serif" stroke="none" xml:space="preserve">NULL</text>
    </g>
    <g fill="rgb(0,204,255)" text-rendering="geometricPrecision" shape-rendering="geometricPrecision" transform="matrix(1,0,0,1,-279,-242)" stroke="rgb(0,204,255)">
      <rect x="845" width="60" height="60" y="517.1176" clip-path="url(#clipPath2)" stroke="none"/>
    </g>
    <g text-rendering="geometricPrecision" stroke-miterlimit="1.45" shape-rendering="geometricPrecision" transform="matrix(1,0,0,1,-279,-242)" stroke-linecap="butt">
      <rect fill="none" x="845" width="60" height="60" y="517.1176" clip-path="url(#clipPath2)"/>
      <text x="860.6958" font-size="30px" y="557.5034" clip-path="url(#clipPath2)" font-family="sans-serif" stroke="none" xml:space="preserve">...</text>
    </g>
    <g fill="rgb(0,204,255)" text-rendering="geometricPrecision" shape-rendering="geometricPrecision" transform="matrix(1,0,0,1,-279,-242)" stroke="rgb(0,204,255)">
      <rect x="426" width="100" height="60" y="706.7656" clip-path="url(#clipPath2)" stroke="none"/>
    </g>
    <g text-rendering="geometricPrecision" stroke-miterlimit="1.45" shape-rendering="geometricPrecision" transform="matrix(1,0,0,1,-279,-242)" stroke-linecap="butt">
      <rect fill="none" x="426" width="100" height="60" y="706.7656" clip-path="url(#clipPath2)"/>
      <text x="435.6729" font-size="30px" y="747.1514" clip-path="url(#clipPath2)" font-family="sans-serif" stroke="none" xml:space="preserve">[0, 0]</text>
    </g>
    <g fill="rgb(0,204,255)" text-rendering="geometricPrecision" shape-rendering="geometricPrecision" transform="matrix(1,0,0,1,-279,-242)" stroke="rgb(0,204,255)">
      <rect x="526" width="120" height="60" y="706.7656" clip-path="url(#clipPath2)" stroke="none"/>
    </g>
    <g text-rendering="geometricPrecision" stroke-miterlimit="1.45" shape-rendering="geometricPrecision" transform="matrix(1,0,0,1,-279,-242)" stroke-linecap="butt">
      <rect fill="none" x="526" width="120" height="60" y="706.7656" clip-path="url(#clipPath2)"/>
      <text x="526.5859" font-size="30px" y="747.1514" clip-path="url(#clipPath2)" font-family="sans-serif" stroke="none" xml:space="preserve">[42, 42]</text>
    </g>
    <g fill="rgb(0,204,255)" text-rendering="geometricPrecision" shape-rendering="geometricPrecision" transform="matrix(1,0,0,1,-279,-242)" stroke="rgb(0,204,255)">
      <rect x="746" width="60" height="60" y="706.7656" clip-path="url(#clipPath2)" stroke="none"/>
    </g>
    <g text-rendering="geometricPrecision" stroke-miterlimit="1.45" shape-rendering="geometricPrecision" transform="matrix(1,0,0,1,-279,-242)" stroke-linecap="butt">
      <rect fill="none" x="746" width="60" height="60" y="706.7656" clip-path="url(#clipPath2)"/>
      <text x="761.6958" font-size="30px" y="747.1514" clip-path="url(#clipPath2)" font-family="sans-serif" stroke="none" xml:space="preserve">...</text>
      <text x="421.0998" font-size="30px" y="557.5034" clip-path="url(#clipPath2)" font-family="sans-serif" stroke="none" xml:space="preserve">ptr</text>
      <text x="699.1481" font-size="30px" y="416.1514" clip-path="url(#clipPath2)" font-family="sans-serif" stroke="none" xml:space="preserve">q</text>
    </g>
    <g fill="rgb(0,204,255)" text-rendering="geometricPrecision" shape-rendering="geometricPrecision" transform="matrix(1,0,0,1,-279,-242)" stroke="rgb(0,204,255)">
      <rect x="815" width="120" height="60" y="300.7656" clip-path="url(#clipPath2)" stroke="none"/>
    </g>
    <g text-rendering="geometricPrecision" stroke-miterlimit="1.45" shape-rendering="geometricPrecision" transform="matrix(1,0,0,1,-279,-242)" stroke-linecap="butt">
      <rect fill="none" x="815" width="120" height="60" y="300.7656" clip-path="url(#clipPath2)"/>
      <text x="815.5859" font-size="30px" y="341.1514" clip-path="url(#clipPath2)" font-family="sans-serif" stroke="none" xml:space="preserve">[15, 15]</text>
      <text x="296.269" font-size="30px" y="341.1514" clip-path="url(#clipPath2)" font-family="sans-serif" stroke="none" xml:space="preserve">nullptr</text>
      <text x="584.9343" font-size="30px" y="512.5034" clip-path="url(#clipPath2)" font-family="sans-serif" stroke="none" xml:space="preserve">a1</text>
      <text x="455.9343" font-size="30px" y="792.1514" clip-path="url(#clipPath2)" font-family="sans-serif" stroke="none" xml:space="preserve">a2</text>
      <text x="481.8223" font-size="30px" y="287.6904" clip-path="url(#clipPath2)" font-family="sans-serif" stroke="none" xml:space="preserve">null_location</text>
      <text x="825.7927" font-size="30px" y="296.1514" clip-path="url(#clipPath2)" font-family="sans-serif" stroke="none" xml:space="preserve">v</text>
    </g>
    <g fill="rgb(0,204,255)" text-rendering="geometricPrecision" shape-rendering="geometricPrecision" transform="matrix(1,0,0,1,-279,-242)" stroke="rgb(0,204,255)">
      <rect x="646" width="100" height="60" y="706.7656" clip-path="url(#clipPath2)" stroke="none"/>
    </g>
    <g text-rendering="geometricPrecision" stroke-miterlimit="1.45" shape-rendering="geometricPrecision" transform="matrix(1,0,0,1,-279,-242)" stroke-linecap="butt">
      <rect fill="none" x="646" width="100" height="60" y="706.7656" clip-path="url(#clipPath2)"/>
      <text x="655.6729" font-size="30px" y="747.1514" clip-path="url(#clipPath2)" font-family="sans-serif" stroke="none" xml:space="preserve">[0, 0]</text>
      <path fill="none" d="M476 698.7656 L476 682.5 L451.9915 562.1176" clip-path="url(#clipPath2)"/>
      <path d="M476 706.7656 L481 694.7656 L476 697.7656 L471 694.7656 Z" clip-path="url(#clipPath2)" stroke="none"/>
      <path fill="none" d="M457.1465 532.1176 L546.3891 367.7957" clip-path="url(#clipPath2)"/>
      <path d="M550.2071 360.7656 L540.0862 368.9246 L545.9119 368.6745 L548.8739 373.6971 Z" clip-path="url(#clipPath2)" stroke="none"/>
      <path fill="none" d="M464 547.1176 L537 547.1176" clip-path="url(#clipPath2)"/>
      <path d="M545 547.1176 L533 542.1176 L536 547.1176 L533 552.1176 Z" clip-path="url(#clipPath2)" stroke="none"/>
      <path fill="none" d="M464 561.2374 L586 676.0781 L586 698.7656" clip-path="url(#clipPath2)"/>
      <path d="M586 706.7656 L591 694.7656 L586 697.7656 L581 694.7656 Z" clip-path="url(#clipPath2)" stroke="none"/>
      <path fill="none" d="M715 433.0781 L715 453.2353 L764.2474 511.0285" clip-path="url(#clipPath2)"/>
      <path d="M769.4361 517.1176 L765.4587 504.741 L763.5988 510.2674 L757.8473 511.2269 Z" clip-path="url(#clipPath2)" stroke="none"/>
      <path fill="none" d="M730 398.7344 L807.7563 362.2861" clip-path="url(#clipPath2)"/>
      <path d="M815 358.8906 L802.0123 359.4566 L806.8509 362.7105 L806.2567 368.5111 Z" clip-path="url(#clipPath2)" stroke="none"/>
      <path fill="none" d="M400.1875 330.7656 L500 330.7656" clip-path="url(#clipPath2)"/>
      <path d="M508 330.7656 L496 325.7656 L499 330.7656 L496 335.7656 Z" clip-path="url(#clipPath2)" stroke="none"/>
      <path fill="none" d="M464 555.4607 L696 684.5 L696 698.7656" clip-path="url(#clipPath2)"/>
      <path d="M696 706.7656 L701 694.7656 L696 697.7656 L691 694.7656 Z" clip-path="url(#clipPath2)" stroke="none"/>
    </g>
  </g>
</svg>
