<?xml version="1.0" encoding="UTF-8"?><svg xmlns="http://www.w3.org/2000/svg" xmlns:xlink="http://www.w3.org/1999/xlink" fill-opacity="1" color-rendering="auto" color-interpolation="auto" text-rendering="auto" stroke="black" stroke-linecap="square" width="610" stroke-miterlimit="10" shape-rendering="auto" stroke-opacity="1" fill="black" stroke-dasharray="none" font-weight="normal" stroke-width="1" height="440" font-family="'Dialog'" font-style="normal" stroke-linejoin="miter" font-size="12px" stroke-dashoffset="0" image-rendering="auto">
  <!--Generated by ySVG 2.5-->
  <defs id="genericDefs"/>
  <g>
    <defs id="defs1">
      <linearGradient x1="635.4133" gradientUnits="userSpaceOnUse" x2="670.48" y1="263.8296" y2="263.8296" id="linearGradient1" spreadMethod="reflect">
        <stop stop-opacity="1" stop-color="white" offset="0%"/>
        <stop stop-opacity="1" stop-color="white" offset="100%"/>
      </linearGradient>
      <clipPath clipPathUnits="userSpaceOnUse" id="clipPath1">
        <path d="M0 0 L610 0 L610 440 L0 440 L0 0 Z"/>
      </clipPath>
      <clipPath clipPathUnits="userSpaceOnUse" id="clipPath2">
        <path d="M188 0 L951.0546 0 L951.0546 550.4 L188 550.4 L188 0 Z"/>
      </clipPath>
      <clipPath clipPathUnits="userSpaceOnUse" id="clipPath3">
        <path d="M-1464.4135 -2014.2927 L2265.6018 -2014.2927 L2265.6018 676.2101 L-1464.4135 676.2101 L-1464.4135 -2014.2927 Z"/>
      </clipPath>
    </defs>
    <g fill="rgb(204,255,255)" text-rendering="geometricPrecision" shape-rendering="geometricPrecision" transform="matrix(0.7994,0,0,0.7994,-150.2907,0)" stroke="rgb(204,255,255)">
      <rect x="522.7694" width="206.7256" height="67.5" y="293.8296" clip-path="url(#clipPath2)" stroke="none"/>
    </g>
    <g text-rendering="geometricPrecision" stroke-miterlimit="1.45" stroke-dasharray="6,2" shape-rendering="geometricPrecision" transform="matrix(0.7994,0,0,0.7994,-150.2907,0)" stroke-linecap="butt">
      <rect fill="none" x="522.7694" width="206.7256" height="67.5" y="293.8296" clip-path="url(#clipPath2)"/>
    </g>
    <g fill="rgb(204,255,255)" text-rendering="geometricPrecision" shape-rendering="geometricPrecision" transform="matrix(0.7994,0,0,0.7994,-150.2907,0)" stroke="rgb(204,255,255)">
      <rect x="522.7694" width="206.7256" height="67.5" y="196.3296" clip-path="url(#clipPath2)" stroke="none"/>
    </g>
    <g text-rendering="geometricPrecision" stroke-miterlimit="1.45" stroke-dasharray="6,2" shape-rendering="geometricPrecision" transform="matrix(0.7994,0,0,0.7994,-150.2907,0)" stroke-linecap="butt">
      <rect fill="none" x="522.7694" width="206.7256" height="67.5" y="196.3296" clip-path="url(#clipPath2)"/>
    </g>
    <g fill="white" text-rendering="geometricPrecision" shape-rendering="geometricPrecision" transform="matrix(0.7994,0,0,0.7994,-150.2907,0)" stroke="white">
      <rect x="617.88" width="52.6" height="25.4" y="120.9876" clip-path="url(#clipPath2)" stroke="none"/>
    </g>
    <g text-rendering="geometricPrecision" stroke-miterlimit="1.45" shape-rendering="geometricPrecision" font-family="sans-serif" transform="matrix(0.7994,0,0,0.7994,-150.2907,0)" stroke-linecap="butt">
      <text x="627.9261" xml:space="preserve" y="137.8419" clip-path="url(#clipPath2)" stroke="none">clang</text>
      <rect x="617.88" y="120.9876" clip-path="url(#clipPath2)" fill="none" width="52.6" height="25.4" stroke-width="2"/>
    </g>
    <g fill="white" text-rendering="geometricPrecision" shape-rendering="geometricPrecision" transform="matrix(0.7994,0,0,0.7994,-150.2907,0)" stroke="white">
      <rect x="623.9294" width="52.6" height="25.4" y="70.3572" clip-path="url(#clipPath2)" stroke="none"/>
    </g>
    <g text-rendering="geometricPrecision" stroke-miterlimit="1.45" stroke-width="2" shape-rendering="geometricPrecision" transform="matrix(0.7994,0,0,0.7994,-150.2907,0)" stroke-linecap="butt">
      <rect fill="none" x="623.9294" width="52.6" height="25.4" y="70.3572" clip-path="url(#clipPath2)"/>
    </g>
    <g fill="white" text-rendering="geometricPrecision" shape-rendering="geometricPrecision" transform="matrix(0.7994,0,0,0.7994,-150.2907,0)" stroke="white">
      <rect x="617.88" width="52.6" height="25.4" y="76.0772" clip-path="url(#clipPath2)" stroke="none"/>
    </g>
    <g text-rendering="geometricPrecision" stroke-miterlimit="1.45" stroke-width="2" shape-rendering="geometricPrecision" transform="matrix(0.7994,0,0,0.7994,-150.2907,0)" stroke-linecap="butt">
      <rect fill="none" x="617.88" width="52.6" height="25.4" y="76.0772" clip-path="url(#clipPath2)"/>
    </g>
    <g fill="white" text-rendering="geometricPrecision" shape-rendering="geometricPrecision" transform="matrix(0.7994,0,0,0.7994,-150.2907,0)" stroke="white">
      <rect x="612.4384" width="52.6" height="25.4" y="81.7972" clip-path="url(#clipPath2)" stroke="none"/>
      <rect x="631.5323" width="14.4121" height="17.9688" y="85.5128" clip-path="url(#clipPath2)" stroke="none"/>
    </g>
    <g text-rendering="geometricPrecision" stroke-miterlimit="1.45" shape-rendering="geometricPrecision" font-family="sans-serif" transform="matrix(0.7994,0,0,0.7994,-150.2907,0)" stroke-linecap="butt">
      <text x="633.5323" xml:space="preserve" y="98.6515" clip-path="url(#clipPath2)" stroke="none">.c</text>
      <rect x="612.4384" y="81.7972" clip-path="url(#clipPath2)" fill="none" width="52.6" height="25.4" stroke-width="2"/>
    </g>
    <g fill="white" text-rendering="geometricPrecision" shape-rendering="geometricPrecision" transform="matrix(0.7994,0,0,0.7994,-150.2907,0)" stroke="white">
      <rect x="617.88" width="52.6" height="25.4" y="162.3" clip-path="url(#clipPath2)" stroke="none"/>
    </g>
    <g text-rendering="geometricPrecision" stroke-miterlimit="1.45" shape-rendering="geometricPrecision" font-family="sans-serif" transform="matrix(0.7994,0,0,0.7994,-150.2907,0)" stroke-linecap="butt">
      <text x="628.2132" xml:space="preserve" y="179.1543" clip-path="url(#clipPath2)" stroke="none">LLVM</text>
      <rect x="617.88" y="162.3" clip-path="url(#clipPath2)" fill="none" width="52.6" height="25.4" stroke-width="2"/>
    </g>
    <g fill="white" text-rendering="geometricPrecision" shape-rendering="geometricPrecision" transform="matrix(0.7994,0,0,0.7994,-150.2907,0)" stroke="white">
      <rect x="617.88" width="52.6" height="25.4" y="373.2372" clip-path="url(#clipPath2)" stroke="none"/>
    </g>
    <g text-rendering="geometricPrecision" stroke-miterlimit="1.45" shape-rendering="geometricPrecision" font-family="sans-serif" transform="matrix(0.7994,0,0,0.7994,-150.2907,0)" stroke-linecap="butt">
      <text x="631.5296" xml:space="preserve" y="390.0915" clip-path="url(#clipPath2)" stroke="none">SMT</text>
      <rect x="617.88" y="373.2372" clip-path="url(#clipPath2)" fill="none" width="52.6" height="25.4" stroke-width="2"/>
    </g>
    <g fill="white" text-rendering="geometricPrecision" shape-rendering="geometricPrecision" transform="matrix(0.7994,0,0,0.7994,-150.2907,0)" stroke="white">
      <rect x="617.88" width="52.6" height="25.4" y="414.7096" clip-path="url(#clipPath2)" stroke="none"/>
    </g>
    <g text-rendering="geometricPrecision" stroke-miterlimit="1.45" shape-rendering="geometricPrecision" font-family="sans-serif" transform="matrix(0.7994,0,0,0.7994,-150.2907,0)" stroke-linecap="butt">
      <text x="626.0071" xml:space="preserve" y="431.5639" clip-path="url(#clipPath2)" stroke="none">solver</text>
      <rect x="617.88" y="414.7096" clip-path="url(#clipPath2)" fill="none" width="52.6" height="25.4" stroke-width="2"/>
    </g>
    <g fill="url(#linearGradient1)" text-rendering="geometricPrecision" shape-rendering="geometricPrecision" transform="matrix(0.7994,0,0,0.7994,-150.2907,0)" stroke="url(#linearGradient1)">
      <path d="M617.88 272.6164 L633.2862 263.8296 L655.0738 263.8296 L670.48 272.6164 L670.48 285.0428 L655.0738 293.8296 L633.2862 293.8296 L617.88 285.0428 Z" fill-rule="evenodd" clip-path="url(#clipPath2)" stroke="none"/>
    </g>
    <g text-rendering="geometricPrecision" stroke-miterlimit="1.45" shape-rendering="geometricPrecision" font-family="sans-serif" transform="matrix(0.7994,0,0,0.7994,-150.2907,0)" stroke-linecap="butt">
      <text x="636.7532" xml:space="preserve" y="282.9839" clip-path="url(#clipPath2)" stroke="none">PS</text>
      <path fill="none" d="M617.88 272.6164 L633.2862 263.8296 L655.0738 263.8296 L670.48 272.6164 L670.48 285.0428 L655.0738 293.8296 L633.2862 293.8296 L617.88 285.0428 Z" stroke-width="2" clip-path="url(#clipPath2)" fill-rule="evenodd"/>
    </g>
    <g fill="white" text-rendering="geometricPrecision" shape-rendering="geometricPrecision" transform="matrix(0.7994,0,0,0.7994,-150.2907,0)" stroke="white">
      <rect x="755.644" width="52.6" height="25.4" y="120.9876" clip-path="url(#clipPath2)" stroke="none"/>
    </g>
    <g text-rendering="geometricPrecision" stroke-miterlimit="1.45" shape-rendering="geometricPrecision" font-family="sans-serif" transform="matrix(0.7994,0,0,0.7994,-150.2907,0)" stroke-linecap="butt">
      <text x="765.6901" xml:space="preserve" y="137.8419" clip-path="url(#clipPath2)" stroke="none">clang</text>
      <rect x="755.644" y="120.9876" clip-path="url(#clipPath2)" fill="none" width="52.6" height="25.4" stroke-width="2"/>
    </g>
    <g fill="white" text-rendering="geometricPrecision" shape-rendering="geometricPrecision" transform="matrix(0.7994,0,0,0.7994,-150.2907,0)" stroke="white">
      <rect x="755.644" width="52.6" height="25.4" y="162.3" clip-path="url(#clipPath2)" stroke="none"/>
    </g>
    <g text-rendering="geometricPrecision" stroke-miterlimit="1.45" shape-rendering="geometricPrecision" font-family="sans-serif" transform="matrix(0.7994,0,0,0.7994,-150.2907,0)" stroke-linecap="butt">
      <text x="765.9772" xml:space="preserve" y="179.1543" clip-path="url(#clipPath2)" stroke="none">LLVM</text>
      <rect x="755.644" y="162.3" clip-path="url(#clipPath2)" fill="none" width="52.6" height="25.4" stroke-width="2"/>
    </g>
    <g fill="white" text-rendering="geometricPrecision" shape-rendering="geometricPrecision" transform="matrix(0.7994,0,0,0.7994,-150.2907,0)" stroke="white">
      <rect x="755.644" width="52.6" height="25.4" y="203.6124" clip-path="url(#clipPath2)" stroke="none"/>
    </g>
    <g text-rendering="geometricPrecision" stroke-miterlimit="1.45" shape-rendering="geometricPrecision" font-family="sans-serif" transform="matrix(0.7994,0,0,0.7994,-150.2907,0)" stroke-linecap="butt">
      <text x="769.4518" xml:space="preserve" y="220.4667" clip-path="url(#clipPath2)" stroke="none">.ELF</text>
      <rect x="755.644" y="203.6124" clip-path="url(#clipPath2)" fill="none" width="52.6" height="25.4" stroke-width="2"/>
      <text x="510.7169" xml:space="preserve" y="92.9315" clip-path="url(#clipPath2)" stroke="none">build system</text>
    </g>
    <g text-rendering="geometricPrecision" shape-rendering="geometricPrecision" transform="matrix(0.1635,0,0,0.1635,239.4875,329.4138)">
      <g clip-path="url(#clipPath3)">
        <svg opacity="1" writing-mode="lr-tb" stop-color="rgb(0, 0, 0)" shape-rendering="auto" glyph-orientation-horizontal="0deg" color-profile="auto" lighting-color="rgb(255, 255, 255)" color="rgb(0, 0, 0)" font-weight="400" alignment-baseline="auto" font-style="normal" color-interpolation-filters="linearrgb" text-anchor="start" stroke-linecap="butt" color-interpolation="srgb" font-variant="normal" word-spacing="normal" fill-opacity="1" text-rendering="auto" clip-path="none" text-decoration="none" letter-spacing="normal" glyph-orientation-vertical="auto" display="inline" font-size-adjust="none" fill="rgb(0, 0, 0)" overflow="visible" font-stretch="normal" stroke-dasharray="none" id="svg1.Smil-ee" stroke-miterlimit="4" stop-opacity="1" color-rendering="auto" font-size="12" mask="none" direction="ltr" baseline-shift="baseline" pointer-events="visiblepainted" enable-background="accumulate" fill-rule="nonzero" image-rendering="auto" stroke-dashoffset="0" width="150" marker-end="none" clip="auto" cursor="auto" stroke="none" filter="none" visibility="visible" kerning="auto" stroke-width="1" font-family="&quot;Arial&quot;,&quot;Helvetica&quot;,sans-serif" flood-opacity="1" clip-rule="nonzero" src="none" height="150" unicode-bidi="normal" stroke-linejoin="miter" stroke-opacity="1" flood-color="rgb(0, 0, 0)" dominant-baseline="auto" marker-start="none" marker-mid="none">
  <circle fill-opacity="0" fill="#000000" r="65" cx="75" cy="75" stroke="#000000" stroke-width="10"/>
  <!--circle cx="75" cy="75" r="60" fill="#ffffff" fill-opacity="0"/-->
  <circle fill="#000000" r="10" cx="50" cy="50"/>
  <circle fill="#000000" r="10" cx="100" cy="50"/>
  <path d="M39 102 c-11 -15 -11 -16 1 -5 8 6 23 12 35 12 12 0 27 -6 35 -12 12 -11 12 -10 1 5 -7 9 -24 17 -36 17 -12 0 -29 -8 -36 -17z"/>
</svg>
      </g>
    </g>
    <g text-rendering="geometricPrecision" stroke-miterlimit="1.45" shape-rendering="geometricPrecision" font-family="sans-serif" transform="matrix(0.7994,0,0,0.7994,-150.2907,0)" stroke-linecap="butt">
      <text x="545.342" xml:space="preserve" y="431.5639" clip-path="url(#clipPath2)" stroke="none">UNSAT</text>
      <text x="696.5419" xml:space="preserve" y="431.5639" clip-path="url(#clipPath2)" stroke="none">SAT</text>
    </g>
    <g fill="white" text-rendering="geometricPrecision" shape-rendering="geometricPrecision" transform="matrix(0.7994,0,0,0.7994,-150.2907,0)" stroke="white">
      <rect x="743.356" width="96.248" height="25.4" y="414.7096" clip-path="url(#clipPath2)" stroke="none"/>
    </g>
    <g text-rendering="geometricPrecision" stroke-miterlimit="1.45" shape-rendering="geometricPrecision" font-family="sans-serif" transform="matrix(0.7994,0,0,0.7994,-150.2907,0)" stroke-linecap="butt">
      <text x="752.1606" xml:space="preserve" y="431.5639" clip-path="url(#clipPath2)" stroke="none">defect report</text>
      <rect x="743.356" y="414.7096" clip-path="url(#clipPath2)" fill="none" width="96.248" height="25.4" stroke-width="2"/>
    </g>
    <g fill="white" text-rendering="geometricPrecision" shape-rendering="geometricPrecision" transform="matrix(0.7994,0,0,0.7994,-150.2907,0)" stroke="white">
      <rect x="599.32" width="89.72" height="25.4" y="203.6124" clip-path="url(#clipPath2)" stroke="none"/>
    </g>
    <g text-rendering="geometricPrecision" stroke-miterlimit="1.45" shape-rendering="geometricPrecision" font-family="sans-serif" transform="matrix(0.7994,0,0,0.7994,-150.2907,0)" stroke-linecap="butt">
      <text x="603.8763" xml:space="preserve" y="220.4667" clip-path="url(#clipPath2)" stroke="none">IR interpreter</text>
      <rect x="599.32" y="203.6124" clip-path="url(#clipPath2)" fill="none" width="89.72" height="25.4" stroke-width="2"/>
      <text x="528.6115" xml:space="preserve" y="255.2839" clip-path="url(#clipPath2)" stroke="none">UNSAT</text>
    </g>
    <g fill="white" text-rendering="geometricPrecision" shape-rendering="geometricPrecision" transform="matrix(0.7994,0,0,0.7994,-150.2907,0)" stroke="white">
      <rect x="599" width="89.72" height="25.4" y="308.5324" clip-path="url(#clipPath2)" stroke="none"/>
    </g>
    <g text-rendering="geometricPrecision" stroke-miterlimit="1.45" shape-rendering="geometricPrecision" font-family="sans-serif" transform="matrix(0.7994,0,0,0.7994,-150.2907,0)" stroke-linecap="butt">
      <text x="602.068" xml:space="preserve" y="325.3867" clip-path="url(#clipPath2)" stroke="none">PS interpreter</text>
      <rect x="599" y="308.5324" clip-path="url(#clipPath2)" fill="none" width="89.72" height="25.4" stroke-width="2"/>
      <text x="532.0873" xml:space="preserve" y="350.7867" clip-path="url(#clipPath2)" stroke="none">UNSAT</text>
      <text x="646.6418" xml:space="preserve" y="247.6915" clip-path="url(#clipPath2)" stroke="none">SAT</text>
      <text x="646.6418" xml:space="preserve" y="350.7867" clip-path="url(#clipPath2)" stroke="none">SAT</text>
      <path fill="none" d="M644.18 107.2334 L644.18 112.9876" clip-path="url(#clipPath2)"/>
      <path d="M644.18 120.9876 L649.18 108.9876 L644.18 111.9876 L639.18 108.9876 Z" clip-path="url(#clipPath2)" stroke="none"/>
      <path fill="none" d="M644.18 146.3876 L644.18 154.3" clip-path="url(#clipPath2)"/>
      <path d="M644.18 162.3 L649.18 150.3 L644.18 153.3 L639.18 150.3 Z" clip-path="url(#clipPath2)" stroke="none"/>
      <path fill="none" d="M644.18 398.6372 L644.18 406.7096" clip-path="url(#clipPath2)"/>
      <path d="M644.18 414.7096 L649.18 402.7096 L644.18 405.7096 L639.18 402.7096 Z" clip-path="url(#clipPath2)" stroke="none"/>
      <path fill="none" d="M676.5519 90.7972 L781.944 90.7972 L781.944 112.9876" clip-path="url(#clipPath2)"/>
      <path d="M781.944 120.9876 L786.944 108.9876 L781.944 111.9876 L776.944 108.9876 Z" clip-path="url(#clipPath2)" stroke="none"/>
      <path fill="none" d="M781.944 146.3876 L781.944 154.3" clip-path="url(#clipPath2)"/>
      <path d="M781.944 162.3 L786.944 150.3 L781.944 153.3 L776.944 150.3 Z" clip-path="url(#clipPath2)" stroke="none"/>
      <path fill="none" d="M781.944 187.7 L781.944 195.6124" clip-path="url(#clipPath2)"/>
      <path d="M781.944 203.6124 L786.944 191.6124 L781.944 194.6124 L776.944 191.6124 Z" clip-path="url(#clipPath2)" stroke="none"/>
      <path fill="none" d="M617.88 427.4096 L600.1 427.4096" clip-path="url(#clipPath2)"/>
      <path d="M592.1 427.4096 L604.1 432.4096 L601.1 427.4096 L604.1 422.4096 Z" clip-path="url(#clipPath2)" stroke="none"/>
      <path fill="none" d="M539.5 427.4096 L525.2741 427.4096" clip-path="url(#clipPath2)"/>
      <path d="M517.2741 427.4096 L529.2741 432.4096 L526.2741 427.4096 L529.2741 422.4096 Z" clip-path="url(#clipPath2)" stroke="none"/>
      <path fill="none" d="M670.48 427.4096 L681.5 427.4096" clip-path="url(#clipPath2)"/>
      <path d="M689.5 427.4096 L677.5 422.4096 L680.5 427.4096 L677.5 432.4096 Z" clip-path="url(#clipPath2)" stroke="none"/>
      <path fill="none" d="M726.74 427.4096 L735.356 427.4096" clip-path="url(#clipPath2)"/>
      <path d="M743.356 427.4096 L731.356 422.4096 L734.356 427.4096 L731.356 432.4096 Z" clip-path="url(#clipPath2)" stroke="none"/>
      <path fill="none" stroke-dasharray="6,2" d="M742.96 62.304 L742.96 141.8773 L742.96 378.6773" clip-path="url(#clipPath2)"/>
      <path fill="none" d="M644.18 187.7 L644.18 195.6124" clip-path="url(#clipPath2)"/>
      <path d="M644.18 203.6124 L649.18 191.6124 L644.18 194.6124 L639.18 191.6124 Z" clip-path="url(#clipPath2)" stroke="none"/>
      <path fill="none" d="M644.18 229.0124 L644.18 255.7969" clip-path="url(#clipPath2)"/>
      <path d="M644.18 263.7969 L649.18 251.7969 L644.18 254.7969 L639.18 251.7969 Z" clip-path="url(#clipPath2)" stroke="none"/>
      <path fill="none" d="M609.4872 229.0124 L582.8819 238.7518" clip-path="url(#clipPath2)"/>
      <path d="M575.3694 241.5019 L588.3569 242.0721 L583.821 238.4081 L584.9193 232.6815 Z" clip-path="url(#clipPath2)" stroke="none"/>
      <path fill="none" d="M534.4666 263.8296 L501.7653 292.2697 L501.7653 405.0475" clip-path="url(#clipPath2)"/>
      <path d="M501.7653 413.0475 L506.7653 401.0475 L501.7653 404.0475 L496.7653 401.0475 Z" clip-path="url(#clipPath2)" stroke="none"/>
      <path fill="none" d="M644.0666 293.8611 L644.0162 300.5326" clip-path="url(#clipPath2)"/>
      <path d="M643.9559 308.5324 L649.0463 296.5705 L644.0238 299.5327 L639.0466 296.495 Z" clip-path="url(#clipPath2)" stroke="none"/>
      <path fill="none" d="M643.9228 333.9324 L644.0776 365.2373" clip-path="url(#clipPath2)"/>
      <path d="M644.1172 373.2372 L649.0578 361.2126 L644.0727 364.2373 L639.0579 361.2621 Z" clip-path="url(#clipPath2)" stroke="none"/>
      <path fill="none" d="M599 333.7106 L586.5527 337.1729" clip-path="url(#clipPath2)"/>
      <path d="M578.8453 339.3168 L591.7463 340.9181 L587.5161 336.905 L589.0664 331.2839 Z" clip-path="url(#clipPath2)" stroke="none"/>
      <path fill="none" d="M545.7537 359.3324 L518.0233 411.1871" clip-path="url(#clipPath2)"/>
      <path d="M514.2507 418.2417 L524.3187 410.0177 L518.4949 410.3053 L515.5005 405.3019 Z" clip-path="url(#clipPath2)" stroke="none"/>
    </g>
  </g>
</svg>
