<?xml version="1.0" encoding="UTF-8"?><svg xmlns="http://www.w3.org/2000/svg" xmlns:xlink="http://www.w3.org/1999/xlink" fill-opacity="1" color-rendering="auto" color-interpolation="auto" text-rendering="auto" stroke="black" stroke-linecap="square" width="712" stroke-miterlimit="10" shape-rendering="auto" stroke-opacity="1" fill="black" stroke-dasharray="none" font-weight="normal" stroke-width="1" height="449" font-family="'Dialog'" font-style="normal" stroke-linejoin="miter" font-size="12px" stroke-dashoffset="0" image-rendering="auto">
  <!--Generated by ySVG 2.5-->
  <defs id="genericDefs"/>
  <g>
    <defs id="defs1">
      <linearGradient x1="370.5" gradientUnits="userSpaceOnUse" x2="370.5" y1="309" y2="339" id="linearGradient1" spreadMethod="pad">
        <stop stop-opacity="1" stop-color="rgb(239,239,239)" offset="0%"/>
        <stop stop-opacity="1" stop-color="rgb(205,205,205)" offset="100%"/>
      </linearGradient>
      <linearGradient x1="370.5" gradientUnits="userSpaceOnUse" x2="370.5" y1="384" y2="414" id="linearGradient2" spreadMethod="pad">
        <stop stop-opacity="1" stop-color="rgb(239,239,239)" offset="0%"/>
        <stop stop-opacity="1" stop-color="rgb(205,205,205)" offset="100%"/>
      </linearGradient>
      <linearGradient x1="370.5" gradientUnits="userSpaceOnUse" x2="370.5" y1="534" y2="564" id="linearGradient3" spreadMethod="pad">
        <stop stop-opacity="1" stop-color="rgb(239,239,239)" offset="0%"/>
        <stop stop-opacity="1" stop-color="rgb(205,205,205)" offset="100%"/>
      </linearGradient>
      <linearGradient x1="370.5" gradientUnits="userSpaceOnUse" x2="370.5" y1="459" y2="489" id="linearGradient4" spreadMethod="pad">
        <stop stop-opacity="1" stop-color="rgb(239,239,239)" offset="0%"/>
        <stop stop-opacity="1" stop-color="rgb(205,205,205)" offset="100%"/>
      </linearGradient>
      <linearGradient x1="709" gradientUnits="userSpaceOnUse" x2="709" y1="534" y2="564" id="linearGradient5" spreadMethod="pad">
        <stop stop-opacity="1" stop-color="rgb(239,239,239)" offset="0%"/>
        <stop stop-opacity="1" stop-color="rgb(205,205,205)" offset="100%"/>
      </linearGradient>
      <linearGradient x1="689.5" gradientUnits="userSpaceOnUse" x2="689.5" y1="311.0781" y2="341.0781" id="linearGradient6" spreadMethod="pad">
        <stop stop-opacity="1" stop-color="rgb(239,239,239)" offset="0%"/>
        <stop stop-opacity="1" stop-color="rgb(205,205,205)" offset="100%"/>
      </linearGradient>
      <linearGradient x1="840.5" gradientUnits="userSpaceOnUse" x2="840.5" y1="311.0781" y2="341.0781" id="linearGradient7" spreadMethod="pad">
        <stop stop-opacity="1" stop-color="rgb(239,239,239)" offset="0%"/>
        <stop stop-opacity="1" stop-color="rgb(205,205,205)" offset="100%"/>
      </linearGradient>
      <linearGradient x1="758.5" gradientUnits="userSpaceOnUse" x2="758.5" y1="384" y2="414" id="linearGradient8" spreadMethod="pad">
        <stop stop-opacity="1" stop-color="rgb(239,239,239)" offset="0%"/>
        <stop stop-opacity="1" stop-color="rgb(205,205,205)" offset="100%"/>
      </linearGradient>
      <clipPath clipPathUnits="userSpaceOnUse" id="clipPath1">
        <path d="M0 0 L712 0 L712 449 L0 449 L0 0 Z"/>
      </clipPath>
      <clipPath clipPathUnits="userSpaceOnUse" id="clipPath2">
        <path d="M325 187 L1037 187 L1037 636 L325 636 L325 187 Z"/>
      </clipPath>
    </defs>
    <g fill="rgb(245,245,245)" text-rendering="geometricPrecision" shape-rendering="geometricPrecision" transform="matrix(1,0,0,1,-325,-187)" stroke="rgb(245,245,245)">
      <rect x="340.5" y="202.1562" clip-path="url(#clipPath2)" width="681" rx="4" ry="4" height="418.8438" stroke="none"/>
    </g>
    <g fill="silver" text-rendering="geometricPrecision" shape-rendering="geometricPrecision" transform="matrix(1,0,0,1,-325,-187)" stroke="silver">
      <rect x="340.5" width="681" height="38.9219" y="202.1562" clip-path="url(#clipPath2)" stroke="none"/>
    </g>
    <g font-size="30px" stroke-linecap="butt" transform="matrix(1,0,0,1,-325,-187)" text-rendering="geometricPrecision" font-family="sans-serif" shape-rendering="geometricPrecision" stroke-miterlimit="1.45">
      <text x="899.0898" xml:space="preserve" y="232.0029" clip-path="url(#clipPath2)" stroke="none">Borealis</text>
      <rect x="340.5" y="202.1562" clip-path="url(#clipPath2)" fill="none" width="681" stroke-dasharray="6,2" rx="4" ry="4" height="418.8438"/>
    </g>
    <g fill="rgb(225,225,225)" text-rendering="geometricPrecision" shape-rendering="geometricPrecision" transform="matrix(1,0,0,1,-325,-187)" stroke="rgb(225,225,225)">
      <rect x="355.5" y="256.0781" clip-path="url(#clipPath2)" width="304" rx="4" ry="4" height="349.9219" stroke="none"/>
    </g>
    <g text-rendering="geometricPrecision" stroke-miterlimit="1.45" stroke-dasharray="6,2" shape-rendering="geometricPrecision" transform="matrix(1,0,0,1,-325,-187)" stroke-linecap="butt">
      <rect x="355.5" y="256.0781" clip-path="url(#clipPath2)" fill="none" width="304" rx="4" ry="4" height="349.9219"/>
    </g>
    <g fill="silver" text-rendering="geometricPrecision" shape-rendering="geometricPrecision" transform="matrix(1,0,0,1,-325,-187)" stroke="silver">
      <rect x="355.5" width="304" height="38.9219" y="256.0781" clip-path="url(#clipPath2)" stroke="none"/>
    </g>
    <g font-size="30px" stroke-linecap="butt" transform="matrix(1,0,0,1,-325,-187)" text-rendering="geometricPrecision" font-family="sans-serif" shape-rendering="geometricPrecision" stroke-miterlimit="1.45">
      <text x="494.6973" xml:space="preserve" y="285.9248" clip-path="url(#clipPath2)" stroke="none">Interpreter</text>
    </g>
    <g fill="silver" text-rendering="geometricPrecision" shape-rendering="geometricPrecision" transform="matrix(1,0,0,1,-325,-187)" stroke="silver">
      <path d="M370.5 337 L533.5 337 L533.5 356 Q533.5 366 523.5 366 L380.5 366 Q370.5 366 370.5 356 Z" stroke="none" clip-path="url(#clipPath2)"/>
      <path fill="url(#linearGradient1)" d="M370.5 320 Q370.5 310 380.5 310 L523.5 310 Q533.5 310 533.5 320 L533.5 338 L370.5 338 Z" clip-path="url(#clipPath2)" stroke="none"/>
      <path fill="none" d="M372.5 320 Q372.5 312 380.5 312 L523.5 312 Q531.5 312 531.5 320 L531.5 356 Q531.5 364 523.5 364 L380.5 364 Q372.5 364 372.5 356 Z" stroke-width="2" clip-path="url(#clipPath2)" stroke="rgb(246,246,246)"/>
      <path fill="none" d="M372.5 320 Q372.5 312 380.5 312 L523.5 312 Q531.5 312 531.5 320 L531.5 356 Q531.5 364 523.5 364 L380.5 364 Q372.5 364 372.5 356 Z" clip-path="url(#clipPath2)"/>
    </g>
    <g font-size="30px" stroke-linecap="butt" transform="matrix(1,0,0,1,-325,-187)" text-rendering="geometricPrecision" font-family="sans-serif" shape-rendering="geometricPrecision" stroke-miterlimit="1.45">
      <text x="390.4619" xml:space="preserve" y="348.3857" clip-path="url(#clipPath2)" stroke="none">Checker</text>
    </g>
    <g fill="silver" text-rendering="geometricPrecision" shape-rendering="geometricPrecision" transform="matrix(1,0,0,1,-325,-187)" stroke="silver">
      <path d="M370.5 412 L533.5 412 L533.5 431 Q533.5 441 523.5 441 L380.5 441 Q370.5 441 370.5 431 Z" stroke="none" clip-path="url(#clipPath2)"/>
      <path fill="url(#linearGradient2)" d="M370.5 395 Q370.5 385 380.5 385 L523.5 385 Q533.5 385 533.5 395 L533.5 413 L370.5 413 Z" clip-path="url(#clipPath2)" stroke="none"/>
      <path fill="none" d="M372.5 395 Q372.5 387 380.5 387 L523.5 387 Q531.5 387 531.5 395 L531.5 431 Q531.5 439 523.5 439 L380.5 439 Q372.5 439 372.5 431 Z" stroke-width="2" clip-path="url(#clipPath2)" stroke="rgb(246,246,246)"/>
      <path fill="none" d="M372.5 395 Q372.5 387 380.5 387 L523.5 387 Q531.5 387 531.5 395 L531.5 431 Q531.5 439 523.5 439 L380.5 439 Q372.5 439 372.5 431 Z" clip-path="url(#clipPath2)"/>
    </g>
    <g font-size="30px" stroke-linecap="butt" transform="matrix(1,0,0,1,-325,-187)" text-rendering="geometricPrecision" font-family="sans-serif" shape-rendering="geometricPrecision" stroke-miterlimit="1.45">
      <text x="393.7944" xml:space="preserve" y="423.3857" clip-path="url(#clipPath2)" stroke="none">Domain</text>
    </g>
    <g fill="silver" text-rendering="geometricPrecision" shape-rendering="geometricPrecision" transform="matrix(1,0,0,1,-325,-187)" stroke="silver">
      <path d="M370.5 562 L533.5 562 L533.5 581 Q533.5 591 523.5 591 L380.5 591 Q370.5 591 370.5 581 Z" stroke="none" clip-path="url(#clipPath2)"/>
      <path fill="url(#linearGradient3)" d="M370.5 545 Q370.5 535 380.5 535 L523.5 535 Q533.5 535 533.5 545 L533.5 563 L370.5 563 Z" clip-path="url(#clipPath2)" stroke="none"/>
      <path fill="none" d="M372.5 545 Q372.5 537 380.5 537 L523.5 537 Q531.5 537 531.5 545 L531.5 581 Q531.5 589 523.5 589 L380.5 589 Q372.5 589 372.5 581 Z" stroke-width="2" clip-path="url(#clipPath2)" stroke="rgb(246,246,246)"/>
      <path fill="none" d="M372.5 545 Q372.5 537 380.5 537 L523.5 537 Q531.5 537 531.5 545 L531.5 581 Q531.5 589 523.5 589 L380.5 589 Q372.5 589 372.5 581 Z" clip-path="url(#clipPath2)"/>
    </g>
    <g font-size="30px" stroke-linecap="butt" transform="matrix(1,0,0,1,-325,-187)" text-rendering="geometricPrecision" font-family="sans-serif" shape-rendering="geometricPrecision" stroke-miterlimit="1.45">
      <text x="437.1538" xml:space="preserve" y="573.3857" clip-path="url(#clipPath2)" stroke="none">IR</text>
    </g>
    <g fill="silver" text-rendering="geometricPrecision" shape-rendering="geometricPrecision" transform="matrix(1,0,0,1,-325,-187)" stroke="silver">
      <path d="M370.5 487 L644.5 487 L644.5 506 Q644.5 516 634.5 516 L380.5 516 Q370.5 516 370.5 506 Z" stroke="none" clip-path="url(#clipPath2)"/>
      <path fill="url(#linearGradient4)" d="M370.5 470 Q370.5 460 380.5 460 L634.5 460 Q644.5 460 644.5 470 L644.5 488 L370.5 488 Z" clip-path="url(#clipPath2)" stroke="none"/>
      <path fill="none" d="M372.5 470 Q372.5 462 380.5 462 L634.5 462 Q642.5 462 642.5 470 L642.5 506 Q642.5 514 634.5 514 L380.5 514 Q372.5 514 372.5 506 Z" stroke-width="2" clip-path="url(#clipPath2)" stroke="rgb(246,246,246)"/>
      <path fill="none" d="M372.5 470 Q372.5 462 380.5 462 L634.5 462 Q642.5 462 642.5 470 L642.5 506 Q642.5 514 634.5 514 L380.5 514 Q372.5 514 372.5 506 Z" clip-path="url(#clipPath2)"/>
    </g>
    <g font-size="30px" stroke-linecap="butt" transform="matrix(1,0,0,1,-325,-187)" text-rendering="geometricPrecision" font-family="sans-serif" shape-rendering="geometricPrecision" stroke-miterlimit="1.45">
      <text x="397.1167" xml:space="preserve" y="498.3857" clip-path="url(#clipPath2)" stroke="none">PredicateState</text>
    </g>
    <g fill="rgb(225,225,225)" text-rendering="geometricPrecision" shape-rendering="geometricPrecision" transform="matrix(1,0,0,1,-325,-187)" stroke="rgb(225,225,225)">
      <rect x="694" y="481.0781" clip-path="url(#clipPath2)" width="280" rx="4" ry="4" height="124.9219" stroke="none"/>
    </g>
    <g text-rendering="geometricPrecision" stroke-miterlimit="1.45" stroke-dasharray="6,2" shape-rendering="geometricPrecision" transform="matrix(1,0,0,1,-325,-187)" stroke-linecap="butt">
      <rect x="694" y="481.0781" clip-path="url(#clipPath2)" fill="none" width="280" rx="4" ry="4" height="124.9219"/>
    </g>
    <g fill="silver" text-rendering="geometricPrecision" shape-rendering="geometricPrecision" transform="matrix(1,0,0,1,-325,-187)" stroke="silver">
      <rect x="694" width="280" height="38.9219" y="481.0781" clip-path="url(#clipPath2)" stroke="none"/>
    </g>
    <g font-size="30px" stroke-linecap="butt" transform="matrix(1,0,0,1,-325,-187)" text-rendering="geometricPrecision" font-family="sans-serif" shape-rendering="geometricPrecision" stroke-miterlimit="1.45">
      <text x="892.5908" xml:space="preserve" y="510.9248" clip-path="url(#clipPath2)" stroke="none">State</text>
    </g>
    <g fill="silver" text-rendering="geometricPrecision" shape-rendering="geometricPrecision" transform="matrix(1,0,0,1,-325,-187)" stroke="silver">
      <path d="M709 562 L959 562 L959 581 Q959 591 949 591 L719 591 Q709 591 709 581 Z" stroke="none" clip-path="url(#clipPath2)"/>
      <path fill="url(#linearGradient5)" d="M709 545 Q709 535 719 535 L949 535 Q959 535 959 545 L959 563 L709 563 Z" clip-path="url(#clipPath2)" stroke="none"/>
      <path fill="none" d="M711 545 Q711 537 719 537 L949 537 Q957 537 957 545 L957 581 Q957 589 949 589 L719 589 Q711 589 711 581 Z" stroke-width="2" clip-path="url(#clipPath2)" stroke="rgb(246,246,246)"/>
      <path fill="none" d="M711 545 Q711 537 719 537 L949 537 Q957 537 957 545 L957 581 Q957 589 949 589 L719 589 Q711 589 711 581 Z" clip-path="url(#clipPath2)"/>
    </g>
    <g font-size="30px" stroke-linecap="butt" transform="matrix(1,0,0,1,-325,-187)" text-rendering="geometricPrecision" font-family="sans-serif" shape-rendering="geometricPrecision" stroke-miterlimit="1.45">
      <text x="741.5244" xml:space="preserve" y="573.3857" clip-path="url(#clipPath2)" stroke="none">Transformer</text>
    </g>
    <g fill="rgb(225,225,225)" text-rendering="geometricPrecision" shape-rendering="geometricPrecision" transform="matrix(1,0,0,1,-325,-187)" stroke="rgb(225,225,225)">
      <rect x="674.5" y="258.1562" clip-path="url(#clipPath2)" width="332" rx="4" ry="4" height="197.8438" stroke="none"/>
    </g>
    <g text-rendering="geometricPrecision" stroke-miterlimit="1.45" stroke-dasharray="6,2" shape-rendering="geometricPrecision" transform="matrix(1,0,0,1,-325,-187)" stroke-linecap="butt">
      <rect x="674.5" y="258.1562" clip-path="url(#clipPath2)" fill="none" width="332" rx="4" ry="4" height="197.8438"/>
    </g>
    <g fill="silver" text-rendering="geometricPrecision" shape-rendering="geometricPrecision" transform="matrix(1,0,0,1,-325,-187)" stroke="silver">
      <rect x="674.5" width="332" height="38.9219" y="258.1562" clip-path="url(#clipPath2)" stroke="none"/>
    </g>
    <g font-size="30px" stroke-linecap="butt" transform="matrix(1,0,0,1,-325,-187)" text-rendering="geometricPrecision" font-family="sans-serif" shape-rendering="geometricPrecision" stroke-miterlimit="1.45">
      <text x="902.6787" xml:space="preserve" y="288.0029" clip-path="url(#clipPath2)" stroke="none">Passes</text>
    </g>
    <g fill="silver" text-rendering="geometricPrecision" shape-rendering="geometricPrecision" transform="matrix(1,0,0,1,-325,-187)" stroke="silver">
      <path d="M689.5 339.0781 L827.5 339.0781 L827.5 358.0781 Q827.5 368.0781 817.5 368.0781 L699.5 368.0781 Q689.5 368.0781 689.5 358.0781 Z" stroke="none" clip-path="url(#clipPath2)"/>
      <path fill="url(#linearGradient6)" d="M689.5 322.0781 Q689.5 312.0781 699.5 312.0781 L817.5 312.0781 Q827.5 312.0781 827.5 322.0781 L827.5 340.0781 L689.5 340.0781 Z" clip-path="url(#clipPath2)" stroke="none"/>
      <path fill="none" d="M691.5 322.0781 Q691.5 314.0781 699.5 314.0781 L817.5 314.0781 Q825.5 314.0781 825.5 322.0781 L825.5 358.0781 Q825.5 366.0781 817.5 366.0781 L699.5 366.0781 Q691.5 366.0781 691.5 358.0781 Z" stroke-width="2" clip-path="url(#clipPath2)" stroke="rgb(246,246,246)"/>
      <path fill="none" d="M691.5 322.0781 Q691.5 314.0781 699.5 314.0781 L817.5 314.0781 Q825.5 314.0781 825.5 322.0781 L825.5 358.0781 Q825.5 366.0781 817.5 366.0781 L699.5 366.0781 Q691.5 366.0781 691.5 358.0781 Z" clip-path="url(#clipPath2)"/>
    </g>
    <g font-size="30px" stroke-linecap="butt" transform="matrix(1,0,0,1,-325,-187)" text-rendering="geometricPrecision" font-family="sans-serif" shape-rendering="geometricPrecision" stroke-miterlimit="1.45">
      <text x="725.3286" xml:space="preserve" y="350.4639" clip-path="url(#clipPath2)" stroke="none">Misc</text>
    </g>
    <g fill="silver" text-rendering="geometricPrecision" shape-rendering="geometricPrecision" transform="matrix(1,0,0,1,-325,-187)" stroke="silver">
      <path d="M840.5 339.0781 L991.5 339.0781 L991.5 358.0781 Q991.5 368.0781 981.5 368.0781 L850.5 368.0781 Q840.5 368.0781 840.5 358.0781 Z" stroke="none" clip-path="url(#clipPath2)"/>
      <path fill="url(#linearGradient7)" d="M840.5 322.0781 Q840.5 312.0781 850.5 312.0781 L981.5 312.0781 Q991.5 312.0781 991.5 322.0781 L991.5 340.0781 L840.5 340.0781 Z" clip-path="url(#clipPath2)" stroke="none"/>
      <path fill="none" d="M842.5 322.0781 Q842.5 314.0781 850.5 314.0781 L981.5 314.0781 Q989.5 314.0781 989.5 322.0781 L989.5 358.0781 Q989.5 366.0781 981.5 366.0781 L850.5 366.0781 Q842.5 366.0781 842.5 358.0781 Z" stroke-width="2" clip-path="url(#clipPath2)" stroke="rgb(246,246,246)"/>
      <path fill="none" d="M842.5 322.0781 Q842.5 314.0781 850.5 314.0781 L981.5 314.0781 Q989.5 314.0781 989.5 322.0781 L989.5 358.0781 Q989.5 366.0781 981.5 366.0781 L850.5 366.0781 Q842.5 366.0781 842.5 358.0781 Z" clip-path="url(#clipPath2)"/>
    </g>
    <g font-size="30px" stroke-linecap="butt" transform="matrix(1,0,0,1,-325,-187)" text-rendering="geometricPrecision" font-family="sans-serif" shape-rendering="geometricPrecision" stroke-miterlimit="1.45">
      <text x="854.4619" xml:space="preserve" y="350.4639" clip-path="url(#clipPath2)" stroke="none">Checker</text>
    </g>
    <g fill="silver" text-rendering="geometricPrecision" shape-rendering="geometricPrecision" transform="matrix(1,0,0,1,-325,-187)" stroke="silver">
      <path d="M758.5 412 L909.5 412 L909.5 431 Q909.5 441 899.5 441 L768.5 441 Q758.5 441 758.5 431 Z" stroke="none" clip-path="url(#clipPath2)"/>
      <path fill="url(#linearGradient8)" d="M758.5 395 Q758.5 385 768.5 385 L899.5 385 Q909.5 385 909.5 395 L909.5 413 L758.5 413 Z" clip-path="url(#clipPath2)" stroke="none"/>
      <path fill="none" d="M760.5 395 Q760.5 387 768.5 387 L899.5 387 Q907.5 387 907.5 395 L907.5 431 Q907.5 439 899.5 439 L768.5 439 Q760.5 439 760.5 431 Z" stroke-width="2" clip-path="url(#clipPath2)" stroke="rgb(246,246,246)"/>
      <path fill="none" d="M760.5 395 Q760.5 387 768.5 387 L899.5 387 Q907.5 387 907.5 395 L907.5 431 Q907.5 439 899.5 439 L768.5 439 Q760.5 439 760.5 431 Z" clip-path="url(#clipPath2)"/>
    </g>
    <g font-size="30px" stroke-linecap="butt" transform="matrix(1,0,0,1,-325,-187)" text-rendering="geometricPrecision" font-family="sans-serif" shape-rendering="geometricPrecision" stroke-miterlimit="1.45">
      <text x="784.5835" xml:space="preserve" y="423.3857" clip-path="url(#clipPath2)" stroke="none">Defect</text>
    </g>
  </g>
</svg>
